<svg xmlns="http://www.w3.org/2000/svg" width="850.39" height="850.39" viewBox="0 0 850.394 850.394" overflow="visible" enable-background="new 0 0 850.394 850.394"><path d="m646.34 385.53c5.93 9.22 2.5 20.27.93 39.55-3.359 41.23-19.46 84.76-30.03 95.34-10.92 10.92-18.46 8.59-27.46-.41.93-17.41.939-38.25.3-68.14-.17-7.94-.38-16.521-.63-25.851-.001-.069-.001-.129-.001-.2-.04-1.32-.07-2.66-.11-4.02.54-24.51 20.79-60.59 44.49-46.99 6.199 3.561 10.129 6.991 12.519 10.721" fill="#ffeec8"/><path d="m165.65 444.75c-18.09-6.6-21.19-22.42-21.19-22.42-4.33-60.18-7.24-182.65 39.29-244.08 94.5-124.78 180.42-127.76 315.49-103.01 102.4 18.76 169.16 123.38 147.1 310.29-2.39-3.73-6.32-7.16-12.52-10.72-23.7-13.6-43.95 22.48-44.49 46.99-.03 1.38.001 2.73.11 4.02 0 .07 0 .13.001.2.25 9.33.46 17.91.63 25.851l-2.04.05c-18.31-27.19-4.7-114.73-32.54-142.57-27.84-27.84-47.72-103.4-47.72-103.4-.48-.3-.98-.56-1.49-.79-11.771-5.23-31.521 8.4-42.25 14.44-16.71 9.39-25.45 6-64.59 21.15-50.27 19.44-92.72-38.18-195.12 17.32l-23.23 71.03c-12 49.41 2.26 71.71 2.26 94.16 0 8-.06 16.12-.09 24.32-7.06 0-12.86-1.1-17.62-2.83" fill="#9e5b16"/><path d="m488.66 418.24c-10.17 9.43-29.19 16.62-42.76 16.62-16.28 0-36.39-6.811-39.04-8.06-3.96-1.84-3.97 4.23-7.64 1.97-4.32-2.689-1.03-5.72 1.42-10.11 8.7-15.4 27.37-30.07 45.37-30.47 21.751-.48 29.13 13.75 42.651 30.05m-44.34 11.2c14.18 1.5 27.859-13.911 14.8-31.07-6.24-8.2-28.66-5.77-32.66 8.71-3.51 12.71 6.96 21.2 17.86 22.36" fill="#fff"/><path d="m459.12 398.37c13.06 17.16-.62 32.57-14.8 31.07-10.9-1.16-21.37-9.65-17.86-22.36 4-14.48 26.42-16.91 32.66-8.71m.1 12.99c0-6.83-6.3-12.37-14.07-12.37-7.79 0-14.09 5.54-14.09 12.37 0 6.85 6.301 12.4 14.09 12.4 7.769 0 14.07-5.55 14.07-12.4" fill="#9e5b16"/><path d="m445.15 398.99c7.77 0 14.07 5.54 14.07 12.37 0 6.85-6.3 12.4-14.07 12.4-7.79 0-14.09-5.55-14.09-12.4.0001-6.83 6.301-12.37 14.09-12.37m5.85 12.63c0-3.39-2.52-6.14-5.63-6.14-3.13 0-5.64 2.75-5.64 6.14 0 3.4 2.51 6.15 5.64 6.15 3.11 0 5.63-2.75 5.63-6.15"/><path d="m445.37 405.48c3.11 0 5.63 2.75 5.63 6.14 0 3.4-2.52 6.15-5.63 6.15-3.13 0-5.64-2.75-5.64-6.15 0-3.39 2.51-6.14 5.64-6.14" fill="#fff"/><path d="m418.75 627.08c-2.49-1.25-42.67-21.28-62.71-21.28-37.44 0-62.91 21.12-62.91 21.12 25.84-14.17 39.63-13.6 60.37-12.979 25.02.749 42.2 2.739 65.25 13.14m19.83 2.71c-21.54 2.43-29.46 3.69-58.42 6.18-17.33 1.48-35.73 2.62-52.81-1.5-14.77-3.55-22.46-3.109-48.8-5.899 24.51-9.721 42.95-51.51 67.25-40.65 12.57 5.62 23.25-3.7 37.1-2.21 18.35 1.959 29.18 36.32 55.68 44.08" fill="#fad7d9"/><path d="m356.04 605.8c20.04 0 60.22 20.03 62.71 21.28-23.05-10.4-40.23-12.39-65.25-13.14-20.74-.62-34.53-1.19-60.37 12.979 0 .0001 25.47-21.12 62.91-21.12"/><path d="m303.25 419.45c2.48 4.39 5.76 7.43 1.43 10.1-3.68 2.29-1.81-5.19-9.23-3.35-2.84.7-14.69 8.729-36.45 8.1-22.1-.649-32.98-9.13-43.17-18.56l-.02-.001v-.001c12.2-14.9 20.68-25.74 44.31-25.74 17.96 0 34.43 14.07 43.13 29.47m-48.29 9.88c14.08 2.29 30.23-13.92 17.74-29.2-7.42-9.09-27-6.35-30.79 4.67-4.49 11.01-.62 22.3 13.05 24.53" fill="#fff"/><g fill="#ffeec8"><path d="m317.47 541.6c-3.96-2-7.17-4.52-9.03-7.479-6.3-10.03-3.14-19.28.81-28.99-6.8 3.859-17.28 26.719 8.22 36.469m-101.66-125.87l.02.001c10.19 9.43 21.07 17.91 43.17 18.56 21.76.63 33.61-7.399 36.45-8.1 7.42-1.84 5.55 5.64 9.23 3.35 4.33-2.67 1.05-5.71-1.43-10.1-8.7-15.4-25.17-29.47-43.13-29.47-23.63 0-32.11 10.84-44.31 25.74v.001m87.51 317.44c-7.95-3.29-14.71-7.4-19.73-12.42-22.3-22.3-33.77-50.86-57.62-92.82-9.17-16.13-32.98-51.689-39.51-104.84-1.04-8.49-1.76-17.02-2.24-25.55-.95-16.75-1.01-33.51-.95-49.96.03-8.2.09-16.32.09-24.32 0-22.45-14.26-44.75-2.26-94.16l23.23-71.03c102.4-55.5 144.85 2.12 195.12-17.32 39.14-15.15 47.88-11.76 64.59-21.15 10.729-6.04 30.479-19.67 42.25-14.44.51.23 1.01.49 1.49.79 0 0 19.88 75.56 47.72 103.4 27.84 27.84 14.23 115.38 32.54 142.57l2.04-.05c.64 29.89.63 50.729-.3 68.14-1 18.92-3.09 33.78-6.62 51.8-3.12 15.99-9.641 31.49-19.17 46.62-24.391 38.71-68.49 74.91-125.91 110.32-26.84 16.54-95.3 20.74-134.76 4.42m142.58-298.31c13.569 0 32.59-7.19 42.76-16.62-13.521-16.3-20.9-30.53-42.65-30.05-18 .4-36.67 15.07-45.37 30.47-2.45 4.39-5.74 7.42-1.42 10.11 3.67 2.261 3.68-3.81 7.64-1.97 2.65 1.251 22.76 8.06 39.04 8.06m-65.74 201.11c28.96-2.489 36.88-3.75 58.42-6.18-26.5-7.76-37.33-42.12-55.68-44.08-13.85-1.49-24.53 7.83-37.1 2.21-24.3-10.86-42.74 30.93-67.25 40.65 26.34 2.79 34.03 2.35 48.8 5.899 17.08 4.121 35.48 2.981 52.81 1.501"/><path d="m273.15 777.65c19.74-19.74 25.05-21.761 30.17-44.48 39.46 16.32 107.92 12.12 134.76-4.42 57.42-35.41 101.52-71.61 125.91-110.32-.29 53.59 40.649 83.29 40.649 83.29 27.09 31.46 74.33 42.01 106.13 63.9-24.06 5.57-43.63 13.93-67.09 20.91-35.97 10.71-75.62 17.89-113.22 18.55-86.33 1.53-177.2 9.61-257.31-27.43"/></g><path d="m272.7 400.13c12.49 15.28-3.66 31.49-17.74 29.2-13.67-2.23-17.54-13.52-13.05-24.53 3.79-11.02 23.37-13.76 30.79-4.67m.12 12.02c0-6.82-6.28-12.37-14.06-12.37-7.78 0-14.07 5.55-14.07 12.37 0 6.85 6.29 12.38 14.07 12.38 7.78 0 14.06-5.53 14.06-12.38" fill="#9e5b16"/><path d="m258.76 399.78c7.78 0 14.06 5.55 14.06 12.37 0 6.85-6.28 12.38-14.06 12.38-7.78 0-14.07-5.53-14.07-12.38 0-6.82 6.29-12.37 14.07-12.37m5.63 11.38c0-3.39-2.52-6.14-5.64-6.14s-5.64 2.75-5.64 6.14c0 3.4 2.52 6.15 5.64 6.15s5.64-2.75 5.64-6.15"/><path d="m258.75 405.02c3.12 0 5.64 2.75 5.64 6.14 0 3.4-2.52 6.15-5.64 6.15s-5.64-2.75-5.64-6.15c0-3.39 2.52-6.14 5.64-6.14" fill="#fff"/><g fill="none" stroke="#000"><path d="m310.56 356.52c-21.08-17.27-22.57-18.13-62.95-18.13-31.37 0-38.3 4.57-58.62 20.32" stroke-width="17.895"/><g stroke-linecap="square" stroke-miterlimit="10"><path d="m213.52 418.5c.78-.94 1.54-1.86 2.29-2.77v-.001c12.2-14.9 20.68-25.74 44.31-25.74 17.96 0 34.43 14.07 43.13 29.47 2.48 4.39 5.76 7.43 1.43 10.1-3.68 2.29-1.81-5.19-9.23-3.35-2.84.7-14.69 8.729-36.45 8.1-22.1-.649-32.98-9.13-43.17-18.56" stroke-width="9"/><path d="m272.7 400.13c12.49 15.28-3.66 31.49-17.74 29.2-13.67-2.23-17.54-13.52-13.05-24.53 3.79-11.02 23.37-13.76 30.79-4.67z" stroke-width="5.965"/><path d="m488.66 418.24c-13.521-16.3-20.9-30.53-42.65-30.05-18 .4-36.67 15.07-45.37 30.47-2.45 4.39-5.74 7.42-1.42 10.11 3.67 2.261 3.68-3.81 7.64-1.97 2.65 1.25 22.76 8.06 39.04 8.06 13.569 0 32.589-7.19 42.759-16.62z" stroke-width="9"/><path d="m459.12 398.37c-6.24-8.2-28.66-5.77-32.66 8.71-3.51 12.71 6.96 21.2 17.86 22.36 14.18 1.5 27.86-13.91 14.8-31.07z" stroke-width="5.965"/></g><g stroke-width="17.895"><path d="m646.34 385.53c22.06-186.91-44.7-291.53-147.1-310.29-135.07-24.75-220.99-21.77-315.49 103.01-46.53 61.43-43.62 183.9-39.29 244.08 0 0 3.1 15.82 21.19 22.42 4.76 1.73 10.56 2.83 17.62 2.83"/><path d="m589.44 425.82c-.04-1.32-.07-2.66-.11-4.02-.001-.36-.021-.73-.03-1.1"/><path d="m588.04 451.92c-18.31-27.19-4.7-114.73-32.54-142.57-27.84-27.84-47.72-103.4-47.72-103.4-.48-.3-.98-.56-1.49-.79-11.771-5.23-31.521 8.4-42.25 14.44-16.71 9.39-25.45 6-64.59 21.15-50.27 19.44-92.72-38.18-195.12 17.32l-23.23 71.03c-12 49.41 2.26 71.71 2.26 94.16 0 8-.06 16.12-.09 24.32-.06 16.45 0 33.21.95 49.96.48 8.53 1.2 17.06 2.24 25.55 6.53 53.15 30.34 88.71 39.51 104.84 23.85 41.96 35.32 70.52 57.62 92.82 5.02 5.02 11.78 9.13 19.73 12.42 39.46 16.32 107.92 12.12 134.76-4.42 57.42-35.41 101.52-71.61 125.91-110.32 9.529-15.13 16.05-30.63 19.17-46.62 3.53-18.02 5.62-32.88 6.62-51.8.93-17.41.939-38.25.3-68.14-.17-7.94-.38-16.521-.63-25.851"/><path d="m506.29 205.16c8.66-24.79 22.46-49.33 39.27-68.01"/></g><g stroke-width="11.381"><path d="m278.55 628.57c26.34 2.79 34.03 2.35 48.8 5.899 17.08 4.12 35.48 2.98 52.81 1.5 28.96-2.489 36.88-3.75 58.42-6.18-26.5-7.76-37.33-42.12-55.68-44.08-13.85-1.49-24.53 7.83-37.1 2.21-24.3-10.859-42.74 30.931-67.25 40.651z"/><path d="m418.75 627.08c.04.02.08.04.12.06"/><path d="m418.75 627.08c-23.05-10.4-40.23-12.39-65.25-13.14-20.74-.62-34.53-1.19-60.37 12.979 0 0 25.47-21.12 62.91-21.12 20.04.0001 60.22 20.03 62.71 21.281z"/></g><g stroke-width="11.93"><path d="m325.66 399.69c2.12 36.3-2.62 44.12-10.46 87.81-1.11 6.19-3.66 11.99-5.95 17.63-3.95 9.71-7.11 18.96-.81 28.99 1.86 2.96 5.07 5.479 9.03 7.479 11.02 5.57 27.8 7.091 37.07 2.811 13.68-6.311 13.76-5.08 32.93-.771 12.43 2.78 21.95-5.77 21.95-16.03 0-9.931-2.14-11.09-7.24-16.181"/><path d="m309.25 505.13c-6.8 3.86-17.28 26.72 8.22 36.47"/></g><g stroke-width="17.895"><path d="m390 353.24c25.71-16.81 25.56-20.36 65.99-20.36 22.07 0 29.15 6.22 49.46 21.96"/><path d="m589.45 426.02c-.001-.069-.001-.129-.001-.2-.101-1.29-.141-2.64-.11-4.02.54-24.51 20.79-60.59 44.49-46.99 6.199 3.56 10.13 6.99 12.52 10.72 5.93 9.22 2.5 20.27.93 39.55-3.359 41.23-19.46 84.76-30.03 95.34-10.92 10.92-18.46 8.59-27.46-.41"/><path d="m165.41 442.44c.08.779.16 1.55.24 2.31 3.55 35.39.42 40.79 18.57 52.79"/><path d="m563.99 618.37c0 .02 0 .04 0 .06-.29 53.59 40.649 83.29 40.649 83.29 27.09 31.46 74.33 42.01 106.13 63.9"/><path d="m303.32 733.17c-5.12 22.72-10.43 24.74-30.17 44.48"/></g></g></svg>