<svg xmlns="http://www.w3.org/2000/svg" width="850.39" height="850.39" viewBox="0 0 850.394 850.394" overflow="visible" enable-background="new 0 0 850.394 850.394"><g fill="#5668af"><circle cx="603.83" cy="466.87" r="14.292"/><circle cx="603.83" cy="436.42" r="14.292"/><circle cx="603.83" cy="405.96" r="14.292"/><circle cx="603.83" cy="375.51" r="14.292"/><circle cx="634.28" cy="345.06" r="14.292"/><circle cx="664.73" cy="345.06" r="14.292"/><circle cx="695.19" cy="345.06" r="14.292"/><circle cx="725.64" cy="345.06" r="14.292"/><circle cx="756.09" cy="375.51" r="14.292"/><circle cx="756.09" cy="405.96" r="14.292"/><circle cx="756.09" cy="436.42" r="14.292"/><circle cx="756.09" cy="466.87" r="14.292"/><circle cx="725.64" cy="497.32" r="14.292"/><circle cx="695.19" cy="497.32" r="14.292"/><circle cx="664.73" cy="497.32" r="14.292"/><circle cx="634.28" cy="497.32" r="14.292"/><circle cx="603.83" cy="345.06" r="14.292"/><circle cx="756.09" cy="345.06" r="14.292"/><circle cx="756.09" cy="497.32" r="14.292"/><circle cx="603.83" cy="497.32" r="14.292"/></g><g fill="none" stroke="#231f20" stroke-width="21"><path d="m97.6 422.19h425.84"/><path d="m133.04 457.63l-45.42-35.48 45.33-35.44"/></g></svg>