<?xml version="1.0" encoding="UTF-8" standalone="no"?>
<svg id="svg2" xmlns:rdf="http://www.w3.org/1999/02/22-rdf-syntax-ns#" xmlns="http://www.w3.org/2000/svg" version="1.1" overflow="visible" height="850.89" width="850.89" enable-background="new 0 0 850.89 850.89" xmlns:cc="http://creativecommons.org/ns#" xmlns:dc="http://purl.org/dc/elements/1.1/" viewBox="0 0 850.89 850.89">
 <metadata id="metadata34">
  <rdf:RDF>
   <cc:Work rdf:about="">
    <dc:format>image/svg+xml</dc:format>
    <dc:type rdf:resource="http://purl.org/dc/dcmitype/StillImage"/>
    <dc:title/>
   </cc:Work>
  </rdf:RDF>
 </metadata>
 <path id="path4" d="m149.37,406.23c1.65-94.63,5.97-186.58,11.13-277.68,34.13-17.92,76.94,4.85,112.4,2.81,23.42-1.34,51.1-21.72,78.69-33.72,29.78-12.96,62.97-22.76,95.52-25.28,35.36-2.76,87.4-6.37,118.02,19.67,11.75,9.99,13.03,27.93,22.49,44.96,10.02,18.09,35.03,32.41,39.32,50.58,2.739,11.58-4.04,27.31,0,39.33,6.649,19.72,36.859,27.35,39.35,59,1.6,20.51-5.22,35.6-16.87,53.4,23.83,24.7,30.84,92.68,2.82,112.38-21.07,14.83-44.07,0.78-73.06,0-50.87-1.35-105.42,37.521-103.97,89.93,0.69,24.39,22,51.15,33.72,75.859,17.19,36.29,33.98,69.84,25.28,123.65-3.93,24.35-14.05,42.47-30.89,42.13-20.98-0.41-47.67-47.89-53.39-81.48-4.96-29.14-35.12-60.88-50.58-84.3-13.66-20.689-41.95-42.59-56.19-64.62-33.64-52.01-49.24-117.96-103.98-148.93-34.72-1.94-59.6,5.97-89.92,8.44,0.041-2.05,0.071-4.09,0.111-6.13" fill="#ffeec8"/>
 <g id="g6" stroke="#000" fill="none">
  <path id="path8" stroke-width="14" d="m160.5,128.55c34.13-17.92,76.94,4.85,112.4,2.81,23.42-1.34,51.1-21.72,78.69-33.72,29.78-12.96,62.97-22.76,95.52-25.28,35.36-2.76,87.4-6.37,118.02,19.67,11.75,9.99,13.03,27.93,22.49,44.96,10.02,18.09,35.03,32.41,39.32,50.58,2.739,11.58-4.04,27.31,0,39.33,6.649,19.72,36.859,27.35,39.35,59,1.6,20.51-5.22,35.6-16.87,53.4,23.83,24.7,30.84,92.68,2.82,112.38-21.07,14.83-44.07,0.78-73.06,0-50.87-1.35-105.42,37.521-103.97,89.93,0.69,24.39,22,51.15,33.72,75.859,17.19,36.29,33.98,69.84,25.28,123.65-3.93,24.35-14.05,42.47-30.89,42.13-20.98-0.41-47.67-47.89-53.39-81.48-4.96-29.14-35.12-60.88-50.58-84.3-13.66-20.689-41.95-42.59-56.19-64.62-33.64-52.01-49.24-117.96-103.98-148.93-34.72-1.94-59.6,5.97-89.92,8.44,0.04-2.05,0.07-4.09,0.11-6.13"/>
  <g id="g10" stroke-width="16.688">
   <path id="path12" d="m589.15,144.12l-100.13,23.841"/>
   <path id="path14" d="m624.91,237.09l-109.66,21.456"/>
   <path id="path16" d="m649.42,339.3l-103.18,21.766"/>
   <path id="path18" d="m443.73,313.38s30.993,14.304,61.985,0"/>
   <path id="path20" d="m491.41,399.21s11.92,14.304,54.832,2.384"/>
  </g>
  <path id="path22" stroke-width="8.344" d="m446.11,694.83c36.714-35.546,59.6,54.834,61.985,85.83"/>
  <g id="g24" stroke-width="16.688">
   <path id="path26" d="m424.66,232.33s28.608,16.688,54.832,2.384"/>
   <path id="path28" d="m400.82,139.35s33.376,14.304,57.22,0"/>
  </g>
 </g>
</svg>
