<svg xmlns="http://www.w3.org/2000/svg" width="850.39" height="850.39" viewBox="0 0 850.394 850.394" overflow="visible" enable-background="new 0 0 850.394 850.394"><g fill="#9e5b16"><path d="m95.77 319.39c15.45 83.71 158.24 149.27 332.09 149.27 168.35 0 309.59-58.11 332.27-138.01l2.061-.001.56 95.76c-4.3 102.19-157.85 184.59-336.44 184.59-181.16 0-330.54-84.47-330.54-188.68v-102.92"/><path d="m698.81 322.81l-270.95-18.51 257.05-104.72c-.001-.001-.03-.02-.04-.03-.03-.02-.061-.04-.101-.06 1.091 0 12.13 1.99 14.01 2h.029v121.25.07"/><path d="m684.87 199.55c-.03-.001-.07-.03-.101-.06.041.02.071.04.101.06"/><path d="m384.24 400.6c.38 8.23 5.39 14.24 12.29 18.22 9.85 5.69 23.55 7.24 33.09 5.18 7.96-1.72 16.43-4.76 22.55-10.27 7.521-6.76 12.25-16.93 12.271-26.37.029-18.59-7.95-28.14-23.73-37.13-3.15-1.8-18.32-7.84-21.87-3.26-2.55 3.32 5.45 13.83 5.45 21.8s-10.59 10.58-10.59 10.58c-3.78 1.39-12.46.95-18.44 3.14-7.851 2.88-11.401 10.05-11.02 18.11m12.3-191.67c-7.86 2.88-11.41 10.05-11.02 18.11.38 8.22 5.39 14.24 12.28 18.21 9.85 5.7 23.55 7.25 33.1 5.19 7.96-1.73 16.42-4.76 22.55-10.27 7.51-6.76 12.25-16.93 12.26-26.37.03-18.59-7.94-28.15-23.72-37.13-3.16-1.8-18.32-7.84-21.86-3.26-2.56 3.32 5.44 13.83 5.44 21.8 0 7.96-10.59 10.58-10.59 10.58-3.781 1.39-12.461.95-18.441 3.14m-202.35 88.7c.38 8.23 5.39 14.24 12.28 18.22 9.85 5.7 23.55 7.24 33.1 5.18 7.96-1.72 16.42-4.76 22.55-10.27 7.52-6.76 12.25-16.92 12.26-26.37.03-18.58-7.95-28.14-23.72-37.13-3.15-1.8-18.32-7.84-21.86-3.26-2.56 3.33 5.44 13.84 5.44 21.8 0 7.97-10.59 10.59-10.59 10.59-3.78 1.39-12.46.94-18.44 3.13-7.86 2.89-11.4 10.05-11.02 18.11m-98.42 21.76c-.92-4.97-1.39-10-1.39-15.09 0-90.78 149.31-164.36 333.48-164.36 16.54 0 32.8.59 48.699 1.74 2.15.15 4.301.32 6.431.5 1.26.1 2.51.2 3.76.32.88.07 1.74.15 2.61.23 5 .46 9.97.97 14.89 1.55 4.1.46 8.18.98 12.22 1.52 20.84 2.83 40.86 6.62 59.851 11.28 2.52.62 5.01 1.26 7.489 1.9 2.82.74 5.61 1.49 8.381 2.27.939.26 1.869.52 2.8.79 6.89 1.97 13.62 4.06 20.18 6.26.98.33 1.96.66 2.94 1 3.26 1.11 6.479 2.26 9.64 3.43.73.27 1.45.53 2.17.81 2.39.89 4.75 1.81 7.09 2.73 2.28.91 4.54 1.83 6.771 2.77 5.76 2.41 11.35 4.92 16.76 7.52 2.09 1 4.16 2.02 6.2 3.05 3.13 1.59 6.2 3.21 9.2 4.85 2.01 1.1 3.979 2.21 5.92 3.33.97.57 1.93 1.13 2.89 1.7.001 0 .001 0 .02 0 .03.03.07.05.101.06.001.001.03.02.04.03l-257.05 104.72 270.95 18.51 63.36 4.33.021 3.5-2.061.001c-22.68 79.9-163.92 138.01-332.27 138.01-173.85 0-316.64-65.56-332.09-149.27"/></g><g fill="#fff"><path d="m681.86 197.79c-1.94-1.12-3.91-2.23-5.92-3.33 2.01 1.09 3.98 2.21 5.92 3.33"/><path d="m660.54 186.56c2.09 1 4.16 2.02 6.2 3.05-2.04-1.03-4.11-2.05-6.2-3.05"/><path d="m637.01 176.27c2.28.91 4.54 1.83 6.771 2.77-2.231-.94-4.491-1.86-6.771-2.77"/></g><path d="m629.92 173.54c-.72-.28-1.439-.54-2.17-.81.73.26 1.45.53 2.17.81" fill="#9e5b16"/><g fill="#fff"><path d="m618.11 169.3c-.98-.34-1.96-.67-2.94-1 .99.33 1.97.66 2.94 1"/><path d="m594.99 162.04c-.931-.27-1.86-.53-2.8-.79.94.26 1.87.52 2.8.79"/></g><path d="m583.81 158.98c-2.479-.64-4.97-1.28-7.489-1.9 2.509.62 5.01 1.25 7.489 1.9" fill="#9e5b16"/><path d="m504.25 144.28c4.1.47 8.18.98 12.22 1.52-4.04-.54-8.12-1.06-12.22-1.52" fill="#fff"/><g fill="#9e5b16"><path d="m489.36 142.73c-.87-.08-1.73-.16-2.61-.23.87.07 1.74.15 2.61.23"/><path d="m482.99 142.18c-2.13-.18-4.28-.35-6.431-.5 2.151.15 4.291.32 6.431.5"/></g><g fill="#ffd3f7"><path d="m420.13 173.41c3.54-4.58 18.7 1.46 21.86 3.26 15.779 8.98 23.75 18.54 23.72 37.13-.001 9.44-4.75 19.61-12.26 26.37-6.13 5.51-14.59 8.54-22.55 10.27-9.55 2.06-23.25.51-33.1-5.19 4.79-23.58 29.57-12.63 43.12-26.17 15.261-15.27-2.259-42.3-20.789-45.67"/><path d="m396.53 418.81v.001c-6.9-3.98-11.91-9.99-12.29-18.22-.38-8.06 3.17-15.23 11.02-18.11 5.98-2.19 14.66-1.75 18.44-3.14 0 0 10.59-2.61 10.59-10.58s-8-18.48-5.45-21.8c18.54 3.37 36.07 30.4 20.8 45.67-13.55 13.54-38.32 2.59-43.11 26.17"/><path d="m418.84 346.97c3.55-4.58 18.72 1.46 21.87 3.26 15.78 8.99 23.76 18.54 23.73 37.13-.021 9.44-4.75 19.61-12.271 26.37-6.12 5.51-14.59 8.55-22.55 10.27-9.54 2.06-23.24.51-33.09-5.18v-.001c4.79-23.58 29.56-12.63 43.11-26.17 15.271-15.27-2.259-42.3-20.799-45.67"/><path d="m440.92 219.08c-13.55 13.54-38.33 2.59-43.12 26.17-6.89-3.97-11.9-9.99-12.28-18.21-.39-8.06 3.16-15.23 11.02-18.11 5.98-2.19 14.66-1.75 18.44-3.14 0 0 10.59-2.62 10.59-10.58 0-7.97-8-18.48-5.44-21.8 18.53 3.37 36.05 30.4 20.79 45.67"/><path d="m228.8 244c3.54-4.58 18.71 1.46 21.86 3.26 15.77 8.99 23.75 18.55 23.72 37.13-.001 9.45-4.74 19.61-12.26 26.37-6.13 5.51-14.59 8.55-22.55 10.27-9.55 2.06-23.25.52-33.1-5.18 4.8-23.58 29.57-12.63 43.12-26.18 15.26-15.27-2.26-42.29-20.79-45.67"/><path d="m206.47 315.85c-6.89-3.98-11.9-9.99-12.28-18.22-.38-8.06 3.16-15.22 11.02-18.11 5.98-2.19 14.66-1.74 18.44-3.13 0 0 10.59-2.62 10.59-10.59 0-7.96-8-18.47-5.44-21.8 18.53 3.38 36.05 30.4 20.79 45.67-13.55 13.55-38.32 2.6-43.12 26.18"/></g><path d="m95.77 422.31c0 104.21 149.38 188.68 330.54 188.68 178.59 0 332.14-82.4 336.44-184.59l.55 95.6c-5.22 109.43-155.84 193.91-336.99 193.91-181.16 0-330.54-84.48-330.54-188.69 0-13.64 0-103.21 0-103.21v-1.7" fill="#9e5b16"/><g fill="none" stroke="#000"><g stroke-width="21.915"><path d="m95.77 422.31c0 104.21 149.38 188.68 330.54 188.68 178.59 0 332.14-82.4 336.44-184.59.06-1.46.09-2.93.09-4.4"/><path d="m698.81 201.33v.16 121.25"/><path d="m684.75 199.49c-.96-.57-1.92-1.13-2.89-1.7-1.94-1.12-3.91-2.23-5.92-3.33-3-1.64-6.07-3.26-9.2-4.85-2.04-1.03-4.11-2.05-6.2-3.05-5.41-2.6-11-5.11-16.76-7.52-2.23-.94-4.49-1.86-6.771-2.77-2.34-.92-4.7-1.84-7.09-2.73-.72-.28-1.439-.55-2.17-.81-3.16-1.17-6.38-2.32-9.64-3.43-.98-.34-1.96-.67-2.94-1-6.56-2.2-13.29-4.29-20.18-6.26-.931-.27-1.86-.53-2.8-.79-2.771-.78-5.561-1.53-8.381-2.27-2.479-.65-4.979-1.28-7.489-1.9-18.99-4.66-39.01-8.45-59.851-11.28-4.04-.54-8.12-1.06-12.22-1.52-4.92-.58-9.89-1.09-14.89-1.55-.87-.08-1.74-.16-2.61-.23-1.25-.12-2.5-.22-3.76-.32-2.141-.18-4.28-.35-6.431-.5-15.899-1.15-32.16-1.74-48.699-1.74-184.17 0-333.48 73.58-333.48 164.36 0 5.09.47 10.12 1.39 15.09 15.45 83.71 158.24 149.27 332.09 149.27 168.35 0 309.59-58.11 332.27-138.01"/><path d="m95.77 318.91v.48 102.92 1.7c0 0 0 89.57 0 104.92v-1.71c0 104.21 149.38 188.69 330.54 188.69 181.15 0 331.77-84.48 336.99-193.91l-.55-95.6-.56-95.76-.021-3.5-63.36-4.33-270.95-18.51 257.05-104.72c-.001-.001-.03-.02-.04-.03-.03-.02-.061-.04-.101-.06"/></g><g stroke-width="14.61"><path d="m228.8 244c3.54-4.58 18.71 1.46 21.86 3.26 15.77 8.99 23.75 18.55 23.72 37.13-.001 9.45-4.74 19.61-12.26 26.37-6.13 5.51-14.59 8.55-22.55 10.27-9.55 2.06-23.25.52-33.1-5.18-6.89-3.98-11.9-9.99-12.28-18.22-.38-8.06 3.16-15.22 11.02-18.11 5.98-2.19 14.66-1.74 18.44-3.13 0 0 10.59-2.62 10.59-10.59 0-7.96-8-18.47-5.44-21.8z"/><path d="m206.47 315.85c4.8-23.58 29.57-12.63 43.12-26.18 15.26-15.27-2.26-42.29-20.79-45.67"/><path d="m420.13 173.41c3.54-4.58 18.7 1.46 21.86 3.26 15.779 8.98 23.75 18.54 23.72 37.13-.001 9.44-4.75 19.61-12.26 26.37-6.13 5.51-14.59 8.54-22.55 10.27-9.55 2.06-23.25.51-33.1-5.19-6.89-3.97-11.9-9.99-12.28-18.21-.39-8.06 3.16-15.23 11.02-18.11 5.98-2.19 14.66-1.75 18.44-3.14 0 0 10.59-2.62 10.59-10.58.0001-7.97-7.999-18.48-5.439-21.8z"/><path d="m397.8 245.25c4.79-23.58 29.57-12.63 43.12-26.17 15.26-15.27-2.26-42.3-20.79-45.67"/><path d="m418.84 346.97c3.55-4.58 18.72 1.46 21.87 3.26 15.78 8.99 23.76 18.54 23.73 37.13-.021 9.44-4.75 19.61-12.271 26.37-6.12 5.51-14.59 8.55-22.55 10.27-9.54 2.06-23.24.51-33.09-5.18-6.9-3.98-11.91-9.99-12.29-18.22-.38-8.06 3.17-15.23 11.02-18.11 5.98-2.19 14.66-1.75 18.44-3.14 0 0 10.59-2.61 10.59-10.58s-7.999-18.48-5.449-21.8z"/><path d="m396.53 418.81c4.79-23.58 29.56-12.63 43.11-26.17 15.271-15.27-2.26-42.3-20.8-45.67"/></g><path d="m684.77 199.49c-.001 0-.001 0-.02 0" stroke-width="21.915"/></g></svg>