<?xml version="1.0" encoding="UTF-8" standalone="no"?>
<svg
   xmlns:dc="http://purl.org/dc/elements/1.1/"
   xmlns:cc="http://creativecommons.org/ns#"
   xmlns:rdf="http://www.w3.org/1999/02/22-rdf-syntax-ns#"
   xmlns:svg="http://www.w3.org/2000/svg"
   xmlns="http://www.w3.org/2000/svg"
   xmlns:sodipodi="http://sodipodi.sourceforge.net/DTD/sodipodi-0.dtd"
   xmlns:inkscape="http://www.inkscape.org/namespaces/inkscape"
   width="850.39"
   height="850.39"
   viewBox="0 0 850.394 850.394"
   overflow="visible"
   enable-background="new 0 0 850.394 850.394"
   id="svg2"
   version="1.1"
   inkscape:version="0.48.4 r9939"
   sodipodi:docname="clip nails , to.svg">
  <metadata
     id="metadata74">
    <rdf:RDF>
      <cc:Work
         rdf:about="">
        <dc:format>image/svg+xml</dc:format>
        <dc:type
           rdf:resource="http://purl.org/dc/dcmitype/StillImage" />
        <dc:title></dc:title>
      </cc:Work>
    </rdf:RDF>
  </metadata>
  <defs
     id="defs72" />
  <sodipodi:namedview
     pagecolor="#ffffff"
     bordercolor="#666666"
     borderopacity="1"
     objecttolerance="10"
     gridtolerance="10"
     guidetolerance="10"
     inkscape:pageopacity="0"
     inkscape:pageshadow="2"
     inkscape:window-width="1920"
     inkscape:window-height="1003"
     id="namedview70"
     showgrid="false"
     inkscape:zoom="0.27751972"
     inkscape:cx="425.19501"
     inkscape:cy="425.19501"
     inkscape:window-x="-9"
     inkscape:window-y="-9"
     inkscape:window-maximized="1"
     inkscape:current-layer="svg2" />
  <path
     d="m 728.78554,274.70703 c -31.53368,15.21214 -17.18652,61.37504 23.22436,61.99556 -48.17489,18.91645 -125.13814,27.47209 -151.14355,39.24317 -25.98662,11.71466 -111.07303,87.36165 -138.58273,118.95174 -12.48562,14.40358 -25.94901,34.82619 -34.61748,52.72537 -10.41721,21.51135 -14.0087,39.37479 -0.92137,39.09274 0,0 23.18486,7.69257 74.91364,-23.50453 62.6913,-37.77649 115.20983,-34.80552 135.63056,-19.51817 20.38313,15.28736 20.90964,34.14738 8.72488,45.39196 -12.25997,11.22577 -35.70808,10.17087 -98.86947,36.8175 -63.2554,26.53192 -106.07126,68.38879 -149.9025,92.88992 -43.77485,24.51992 -128.95528,50.67577 -198.30306,34.39183 -17.20531,-4.02398 -38.11494,-5.39664 -60.51007,-5.1522 L 33.880589,495.12314 c 56.598919,-36.61066 58.667319,-61.2058 101.953261,-122.24237 0,0 76.79401,-146.96915 115.5859,-171.47028 38.71667,-24.57633 199.80733,-89.91895 232.43163,-90.99075 24.01223,-0.77095 82.54792,-2.40687 122.09195,-2.48208 -22.84641,13.80186 -9.10096,46.33215 15.53179,50.86382 v 0.002 c 10.94371,-0.24444 21.84982,-0.48889 32.26702,-0.73334 15.85146,-0.35726 30.5747,-0.71454 42.59022,-1.09061 -27.79176,12.9745 -5.26501,48.77661 27.62252,55.03822 4.77612,-0.28206 9.42063,-0.56411 13.91281,-0.80856 0.0395,0 0.0564,0 0.094,-0.002 3.19662,-0.16923 6.31801,-0.35727 9.32659,-0.52649 -17.43096,18.86003 -4.41885,52.38501 21.68058,57.55601 -0.5453,0.0959 -1.06992,0.18992 -1.61523,0.28206 -13.20014,2.23951 -26.06371,4.28911 -38.56811,6.18827"
     id="path26"
     inkscape:connector-curvature="0"
     style="fill:#ffeec8" />
  <g
     fill="none"
     stroke="#231f20"
     stroke-width="14"
     id="g28">
    <g
       stroke-miterlimit="10"
       id="g40"
       transform="matrix(1.8803627,0,0,1.8803627,-126.64785,-546.93624)"
       style="stroke-miterlimit:10">
      <path
         d="m 467.82,400.31 c -2.63,1.57 -5.49,2.6 -8.01,2.88"
         id="path42"
         inkscape:connector-curvature="0" />
      <path
         d="m 468.75,399.72 c -0.3,0.21 -0.61,0.4 -0.92,0.58"
         id="path44"
         inkscape:connector-curvature="0" />
      <path
         d="m 255.59,418.81 c 0,0 76.2,-38.85 84.57,-41.05 4.35,-1.11 31.19,-1.82 57.7,-2.43 5.82,-0.13 11.62,-0.26 17.16,-0.39 8.43,-0.19 16.26,-0.38 22.65,-0.58 7.36,-0.23 12.8,-0.47 15.04,-0.74 0,0 15.05,-1.54 21.78,8.66 4.5,6.84 0.21,13.51 -5.721,17.43"
         id="path46"
         inkscape:connector-curvature="0" />
      <path
         d="m 271.63,460.27 c 0,0 84.85,-47.26 91.9,-49.41 4.62,-1.44 53.26,-5.08 88.83,-7.23 2.54,-0.15 5.01,-0.3 7.399,-0.43 0.021,0 0.03,0 0.05,-10e-4 1.7,-0.09 3.36,-0.19 4.96,-0.28 12.73,-0.69 22.18,-1.07 24.58,-0.88 17.61,1.34 19.07,25.76 1.07,29.02 -4.79,0.87 -9.5,1.69 -14.12,2.47 -0.29,0.051 -0.569,0.101 -0.859,0.15 -7.02,1.19 -13.86,2.28 -20.511,3.29 -20.239,3.08 -38.81,5.35 -55.86,6.94 -26.57,2.439 -36.59,8.159 -48.51,16.859 -11.95,8.681 -53.12,33.4 -53.12,33.4"
         id="path48"
         inkscape:connector-curvature="0" />
      <path
         d="m 294.79,582.1 c -5.54,11.44 -7.45,20.94 -0.49,20.79 0,0 12.33,4.091 39.84,-12.5 33.34,-20.09 61.27,-18.51 72.13,-10.38 10.84,8.13 11.12,18.16 4.64,24.14 -6.52,5.97 -18.99,5.409 -52.58,19.58 -33.64,14.11 -56.41,36.37 -79.72,49.4 -23.28,13.04 -68.58,26.95 -105.46,18.29 -9.15,-2.14 -20.27,-2.87 -32.18,-2.74"
         id="path50"
         inkscape:connector-curvature="0" />
      <path
         d="m 475.82,435.92 c 0,0 22.2,21.93 -8.54,34.01 -25.62,10.06 -66.55,14.61 -80.38,20.87 -13.82,6.23 -59.07,46.46 -73.7,63.26 -6.64,7.66 -13.8,18.521 -18.41,28.04"
         id="path52"
         inkscape:connector-curvature="0" />
      <path
         d="m 201.06,397.98 c 20.59,-13.07 106.26,-47.82 123.61,-48.39 12.77,-0.41 43.9,-1.28 64.93,-1.32 7.58,-0.02 13.85,0.07 17.47,0.32 15.48,1.06 19.331,21.23 7.93,25.58"
         id="path54"
         inkscape:connector-curvature="0" />
      <path
         d="m 85.37,554.18 c 30.1,-19.47 31.2,-32.55 54.22,-65.01 0,0 40.84,-78.16 61.47,-91.19"
         id="path56"
         inkscape:connector-curvature="0" />
      <path
         d="m 390.41,347.8 c -0.28,0.15 -0.55,0.3 -0.81,0.47 -12.15,7.34 -4.84,24.64 8.26,27.05"
         id="path58"
         inkscape:connector-curvature="0" />
      <path
         d="m 439.33,373.66 c -0.59,0.21 -1.14,0.44 -1.66,0.7 -14.78,6.9 -2.8,25.94 14.69,29.27"
         id="path60"
         inkscape:connector-curvature="0" />
      <path
         d="m 469.49,399.3 c -0.25,0.13 -0.48,0.27 -0.721,0.41 -0.001,0 -0.001,0 -0.02,0.001 -0.32,0.19 -0.63,0.38 -0.92,0.58 -0.001,10e-4 -0.001,10e-4 -0.001,10e-4 -1.17,0.79 -2.181,1.66 -3.051,2.6 -9.27,10.03 -2.35,27.859 11.53,30.609 0.07,0.021 0.15,0.04 0.22,0.051"
         id="path62"
         inkscape:connector-curvature="0" />
      <path
         d="m 454.95,436.95 c -10e-4,0 -10e-4,0.001 -0.021,0.001 -16.77,8.09 -9.14,32.64 12.351,32.97"
         id="path64"
         inkscape:connector-curvature="0" />
    </g>
  </g>
</svg>
