<svg xmlns="http://www.w3.org/2000/svg" width="850.39" height="850.39" viewBox="0 0 850.394 850.394" overflow="visible" enable-background="new 0 0 850.394 850.394"><path fill="#fff" d="m236.06 732.76l1.08-650.15h375.78l-.92 688.42h-32.35v-6.71-651.47h-308.88v651.15 7.03h-34.77v-1.03z"/><path d="m579.65 112.85v651.47l-308.88-.32v-651.15h308.88m-255.09 307.86c0-9.08-7.37-16.44-16.45-16.44s-16.44 7.36-16.44 16.44c0 9.09 7.36 16.45 16.44 16.45s16.45-7.36 16.45-16.45" fill="#abd150"/><path d="m308.11 404.27c9.08 0 16.45 7.36 16.45 16.44 0 9.09-7.37 16.45-16.45 16.45s-16.44-7.36-16.44-16.45c0-9.08 7.36-16.44 16.44-16.44" fill="#fbed24"/><g fill="none" stroke="#231f20"><path stroke-width="14" d="m98.39 771.03h137.61 34.77v-7.03-651.15h308.88v651.47 6.71h32.35 142.11"/><path stroke-width="28" d="m270 764h.77l308.88.32"/><path d="m324.56 420.71c0 9.09-7.37 16.45-16.45 16.45s-16.44-7.36-16.44-16.45c0-9.08 7.36-16.44 16.44-16.44s16.45 7.36 16.45 16.44z" stroke-width="19.1"/><g stroke-width="28"><path d="m612.92 733.56h139.6"/><path d="m236 770l.06-37.24 1.08-650.15h375.78l-.92 688.42v.97"/><path d="m99.98 732.76h136.08 1.08"/></g></g></svg>