<svg xmlns="http://www.w3.org/2000/svg" width="850.39" height="850.39" viewBox="0 0 850.394 850.394" overflow="visible" enable-background="new 0 0 850.394 850.394"><g fill="none" stroke="#231f20" stroke-width="28"><path d="m680.61 180.96v261.27"/><path d="m604.2 356.81l76.69 87.09 76.67-87.23"/><path d="m424.89 180.96v261.27"/><path d="m348.47 356.81l76.7 87.09 76.67-87.23"/><path d="m162.59 180.96v261.27"/><path d="m86.18 356.81l76.69 87.09 76.68-87.23"/></g><g fill="#5668af"><circle cx="244.85" cy="576.78" r="14.292"/><circle cx="244.85" cy="608.6" r="14.292"/><circle cx="244.85" cy="640.42" r="14.292"/><circle cx="244.85" cy="672.24" r="14.292"/><circle cx="212.39" cy="704.06" r="14.292"/><circle cx="179.92" cy="704.06" r="14.292"/><circle cx="147.45" cy="704.06" r="14.292"/><circle cx="114.98" cy="704.06" r="14.292"/><circle cx="82.51" cy="672.24" r="14.292"/><circle cx="82.51" cy="640.42" r="14.292"/><circle cx="82.51" cy="608.6" r="14.292"/><circle cx="82.51" cy="576.78" r="14.292"/><circle cx="114.98" cy="544.96" r="14.292"/><circle cx="147.45" cy="544.96" r="14.292"/><circle cx="179.92" cy="544.96" r="14.292"/><circle cx="212.39" cy="544.96" r="14.292"/><circle cx="244.85" cy="704.06" r="14.292"/><circle cx="82.51" cy="704.06" r="14.292"/><circle cx="82.51" cy="544.96" r="14.292"/><circle cx="244.85" cy="544.96" r="14.292"/><circle cx="505.35" cy="578.65" r="14.292"/><circle cx="505.35" cy="610.48" r="14.292"/><circle cx="505.35" cy="642.3" r="14.292"/><circle cx="505.35" cy="674.12" r="14.292"/><circle cx="472.89" cy="705.94" r="14.292"/><circle cx="440.42" cy="705.94" r="14.292"/><circle cx="407.95" cy="705.94" r="14.292"/><circle cx="375.48" cy="705.94" r="14.292"/><circle cx="343.01" cy="674.12" r="14.292"/><circle cx="343.01" cy="642.3" r="14.292"/><circle cx="343.01" cy="610.48" r="14.292"/><circle cx="343.01" cy="578.65" r="14.292"/><circle cx="375.48" cy="546.83" r="14.292"/><circle cx="407.95" cy="546.83" r="14.292"/><circle cx="440.42" cy="546.83" r="14.292"/><circle cx="472.89" cy="546.83" r="14.292"/><circle cx="505.35" cy="705.94" r="14.292"/><circle cx="343.01" cy="705.94" r="14.292"/><circle cx="343.01" cy="546.83" r="14.292"/><circle cx="505.35" cy="546.83" r="14.292"/><circle cx="762.85" cy="574.78" r="14.292"/><circle cx="762.85" cy="606.6" r="14.292"/><circle cx="762.85" cy="638.42" r="14.292"/><circle cx="762.85" cy="670.24" r="14.292"/><circle cx="730.39" cy="702.06" r="14.292"/><circle cx="697.92" cy="702.06" r="14.292"/><circle cx="665.45" cy="702.06" r="14.292"/><circle cx="632.98" cy="702.06" r="14.292"/><circle cx="600.51" cy="670.24" r="14.292"/><circle cx="600.51" cy="638.42" r="14.292"/><circle cx="600.51" cy="606.6" r="14.292"/><circle cx="600.51" cy="574.78" r="14.292"/><circle cx="632.98" cy="542.96" r="14.292"/><circle cx="665.45" cy="542.96" r="14.292"/><circle cx="697.92" cy="542.96" r="14.292"/><circle cx="730.39" cy="542.96" r="14.292"/><circle cx="762.85" cy="702.06" r="14.292"/><circle cx="600.51" cy="702.06" r="14.292"/><circle cx="600.51" cy="542.96" r="14.292"/><circle cx="762.85" cy="542.96" r="14.292"/></g></svg>