<svg xmlns="http://www.w3.org/2000/svg" width="850.39" height="850.39" viewBox="0 0 850.394 850.394" overflow="visible" enable-background="new 0 0 850.394 850.394"><path d="m774.8 318.82c0 53.906 2.292 44.16-13.175 52.19-8.879 4.595-144.6 73.37-177.39 89.991 11.306-7.455 16.21-19.452 16.21-19.452s4.14-74.927 5.41-108.98l.278.001 153.77-72.26c0 10.335 14.899-6.887 14.899 58.5" fill="#faa41f"/><path d="m754.41 683.52c7.187 7.196 11.513 16.54 0 28.03-15.342-11.936-44.788-32.647-54.711-38.853-21.878-13.701-39.564-27.784-56.21-47.45-4.636-5.492-14.196-14.712-19.431-6.474-4.626 7.27.578 15.797-7.341 22.11-6.351 5.08-20.434 7.682-18.399 18.12 1.734 8.91 16.736 7.465 24.521 9.922 39.946 12.638 76.05 35.05 113.56 58.4l.423.495c-6.504 5.606-13.722 11.409-20.566 16.04l-118.97-54.742c-39.544-14.372-92.99.506-118.5 8.756-20.11 6.535-68.793 24.655-99.92-6.463-17.707-17.718-38.697-43.08-44.541-62.744-.011-.011-.011-.021-.011-.021-.588-9.447.599-18.244 4.336-25.719 0 0 21.486-46.32 67.54-55.32 14.1-2.747 88.43-15.818 128.71-11.481 40.25 4.295 52.48 14.361 88.42 42.41 35.951 28.03 122.72 96.59 131.09 104.98m-156.4-56.12c6.133-11.347 6.804-30.417.134-41.516-8.404-14.01-26.452-20.712-41.495-24.439-34.402-8.497-68.31-5.74-102.99-2.157-20.846 2.157-51.16 6.185-68.17 19.41-6.153 4.791-13.185 10.624-16.541 17.635-7.981 16.695-6.112 30.01-2.333 37.717 4.377 8.941 11.801 15.178 20.34 20.15 19.16 11.202 42.642 19.503 64.54 22.973 25.327 4.04 53.23-2.158 77.67-9.489 22.311-6.68 56.775-17.976 68.835-40.29" fill="#ffffc2"/><g fill="#bd2226"><path d="m736.41 727.32c-37.51-23.345-73.62-45.76-113.56-58.4-7.785-2.457-22.787-1.012-24.521-9.922-2.034-10.438 12.05-13.04 18.399-18.12 7.919-6.309 2.715-14.836 7.341-22.11 5.234-8.238 14.795.981 19.431 6.474 16.644 19.669 34.33 33.752 56.21 47.45 9.923 6.205 39.37 26.917 54.711 38.853-3.902 3.902-10.283 9.963-17.583 16.261l-.423-.497"/><path d="m716.26 743.86c-.382.269-.765.526-1.146.774-7.65 5.101-14.743 8.621-19.647 8.621-14.383 0-79.71-34.02-109.52-38.872-25.956-4.244-71.2-10.77-107.16 15.14-13.824 9.964-21.07 16.251-37.758 20.97-7.186 2.034-19.751 1.404-27.04-.641-21.476-6.06-27.64-9.106-34.918-18.904-5.193-6.97-42.14-60.771-44.748-102.28 5.844 19.669 26.834 45.03 44.541 62.744 31.13 31.12 79.81 12.998 99.92 6.463 25.513-8.25 78.954-23.13 118.5-8.756l118.97 54.742"/></g><path d="m584.23 461c-5.101 3.355-11.492 5.792-19.328 5.792-28.931 0-59.946-11.347-87.62-18.698-10.841-2.891-28.331-7.01-38.945-11.171-22.549-8.869-24.04-34.877-24.397-49.45-.299-12.772.64-25.874.279-38.77-.723-26.886.485-58.13-8.745-83.8-9.03-25.05-10.593-55.795 7.124-68.887 2.561-1.9 5.524-3.428 8.931-4.512 26.968-8.601 105.81-8.89 153.69 38.986 26.958 26.948 30.985 47.04 30.985 88.32 0 2.809-.135 7.609-.361 13.753-1.271 34.05-5.41 108.98-5.41 108.98s-4.905 11.998-16.211 19.453" fill="#ffffc2"/><path d="m598.15 585.89c6.67 11.1 5.999 30.17-.134 41.516-12.06 22.312-46.523 33.607-68.835 40.29-24.449 7.331-52.35 13.525-77.67 9.489-21.898-3.47-45.38-11.771-64.54-22.973-8.539-4.977-15.962-11.213-20.34-20.15-3.779-7.702-5.648-21.02 2.333-37.717 3.356-7.01 10.387-12.844 16.541-17.635 17-13.226 47.32-17.253 68.17-19.41 34.681-3.583 68.59-6.34 102.99 2.157 15.04 3.728 33.09 10.429 41.495 24.44" fill="#bd2226"/><path d="m412.59 196.02c0 0 57.11-49.23 120.19-63 63.1-13.763 113.56-14.919 154.84 2.292 41.3 17.211 80.3 50.46 80.3 83.73 0 33.26-8.02 30.964-8.02 41.28l-153.77 72.26-.278-.001c.227-6.144.361-10.944.361-13.753 0-41.28-4.03-61.37-30.985-88.32-47.886-47.876-126.73-47.587-153.69-38.986-3.407 1.084-6.371 2.612-8.931 4.512l-.011-.011" fill="#faa41f"/><g fill="#ffffc2"><path d="m395.1 514.55v.011l-37.593 19.864-1.084-2.055c-7.95-3.623-13.339-10.654-13.339-18.708 0-11.791 11.533-21.352 25.771-21.352 14.228 0 25.771 9.561 25.771 21.352l.474.888"/><path d="m345.55 423.68c7.537 0 13.649 5.069 13.649 11.326 0 6.246-6.112 11.306-13.649 11.306-7.526 0-13.639-5.06-13.639-11.306 0-6.257 6.112-11.326 13.639-11.326"/></g><path d="m322.11 553.14l-.258.599-253.9-107.68v-113.32c1 8.89 10.17 16.933 10.17 16.933l243.99 203.47" fill="#fbee34"/><path d="m270.51 433.79c10.07 0 18.234 6.773 18.234 15.13 0 8.343-8.167 15.11-18.234 15.11-10.07 0-18.233-6.763-18.233-15.11 0-8.352 8.167-15.13 18.233-15.13" fill="#ffffc2"/><path d="m67.95 332.74c-.588-5.234 1.631-10.748 10.17-15.11 19.16-9.778 87.6-33.907 87.6-33.907s18.853-6.598 38.625 5.658c19.792 12.235 249.64 194.04 249.64 194.04l-58.882 31.12-.475-.888c0-11.791-11.543-21.352-25.771-21.352-14.238 0-25.771 9.561-25.771 21.352 0 8.05 5.389 15.09 13.339 18.708l1.084 2.055-35.403 18.72-243.98-203.47c0 0-9.168-8.04-10.17-16.932m155.32 14.661c-14.217 0-25.76 9.561-25.76 21.362 0 11.791 11.543 21.352 25.76 21.352 14.228 0 25.76-9.561 25.76-21.352 0-11.801-11.532-21.362-25.76-21.362m135.94 87.61c0-6.257-6.112-11.326-13.649-11.326-7.526 0-13.639 5.069-13.639 11.326 0 6.246 6.112 11.306 13.639 11.306 7.537 0 13.649-5.06 13.649-11.306m-70.46 13.907c0-8.353-8.167-15.13-18.234-15.13-10.07 0-18.233 6.773-18.233 15.13 0 8.343 8.167 15.11 18.233 15.11 10.07.0001 18.234-6.762 18.234-15.11m-140.48-109.83c0-6.236-6.102-11.306-13.639-11.306s-13.649 5.07-13.649 11.306c0 6.247 6.112 11.316 13.649 11.316s13.639-5.069 13.639-11.316" fill="#fbee34"/><g fill="#ffffc2"><path d="m223.27 390.11c-14.217 0-25.76-9.561-25.76-21.352 0-11.801 11.543-21.362 25.76-21.362 14.228 0 25.76 9.561 25.76 21.362 0 11.791-11.532 21.352-25.76 21.352"/><path d="m134.63 327.77c7.537 0 13.639 5.07 13.639 11.306 0 6.247-6.102 11.316-13.639 11.316s-13.649-5.069-13.649-11.316c0-6.236 6.112-11.306 13.649-11.306"/></g><g fill="none" stroke="#231f20" stroke-width="14.455"><path d="m67.95 332.74c-.588-5.234 1.631-10.748 10.17-15.11 19.16-9.778 87.6-33.907 87.6-33.907s18.853-6.598 38.625 5.658c19.792 12.235 249.64 194.04 249.64 194.04l-58.882 31.12v.011l-37.593 19.864-35.403 18.72-243.99-203.47c0 0-9.168-8.04-10.17-16.932z"/><path d="m67.95 332.54v.2 113.32l253.9 107.68 2.07.88"/><path d="m249.03 368.76c0 11.791-11.533 21.352-25.76 21.352-14.217 0-25.76-9.561-25.76-21.352 0-11.801 11.543-21.362 25.76-21.362 14.228 0 25.76 9.561 25.76 21.362z"/><path d="m356.43 532.37c-7.95-3.623-13.339-10.654-13.339-18.708 0-11.791 11.533-21.352 25.771-21.352 14.228 0 25.771 9.561 25.771 21.352"/><path d="m288.75 448.91c0 8.343-8.167 15.11-18.234 15.11-10.07 0-18.233-6.763-18.233-15.11 0-8.353 8.167-15.13 18.233-15.13 10.07 0 18.234 6.774 18.234 15.13z"/><path d="m359.2 435c0 6.246-6.112 11.306-13.649 11.306-7.526 0-13.639-5.06-13.639-11.306 0-6.257 6.112-11.326 13.639-11.326 7.537 0 13.649 5.069 13.649 11.326z"/><path d="m148.27 339.08c0 6.247-6.102 11.316-13.639 11.316s-13.649-5.069-13.649-11.316c0-6.236 6.112-11.306 13.649-11.306s13.639 5.07 13.639 11.306z"/><path d="m584.23 461c-5.101 3.355-11.492 5.792-19.328 5.792-28.931 0-59.946-11.347-87.62-18.698-10.841-2.891-28.331-7.01-38.945-11.171-22.549-8.869-24.04-34.877-24.397-49.45-.299-12.772.64-25.874.279-38.77-.723-26.886.485-58.13-8.745-83.8-9.03-25.05-10.593-55.795 7.124-68.887 2.561-1.9 5.524-3.428 8.931-4.512 26.968-8.601 105.81-8.89 153.69 38.986 26.958 26.948 30.985 47.04 30.985 88.32 0 2.809-.135 7.609-.361 13.753-1.271 34.05-5.41 108.98-5.41 108.98s-4.905 11.998-16.211 19.453z"/><path d="m412.59 196.02c0 0 57.11-49.23 120.19-63 63.1-13.763 113.56-14.919 154.84 2.292 41.3 17.211 80.3 50.46 80.3 83.73 0 33.26-8.02 30.964-8.02 41.28 0 10.335 14.898-6.887 14.898 58.5 0 53.906 2.292 44.16-13.175 52.19-8.879 4.595-144.6 73.37-177.39 89.991-4.522 2.292-7.094 3.593-7.094 3.593"/><path d="m759.9 260.32l-153.77 72.26"/><path d="m368.96 596.34c3.356-7.01 10.387-12.844 16.541-17.635 17-13.226 47.32-17.253 68.17-19.41 34.681-3.583 68.59-6.34 102.99 2.157 15.04 3.728 33.09 10.429 41.495 24.439 6.67 11.1 5.999 30.17-.134 41.516-12.06 22.312-46.523 33.607-68.835 40.29-24.449 7.331-52.35 13.525-77.67 9.489-21.898-3.47-45.38-11.771-64.54-22.973-8.539-4.977-15.962-11.213-20.34-20.15-3.779-7.702-5.648-21.02 2.333-37.716z"/><path d="m334.33 628.67c5.844 19.669 26.834 45.03 44.541 62.744 31.13 31.12 79.81 12.998 99.92 6.463 25.513-8.25 78.954-23.13 118.5-8.756l118.97 54.742"/><path d="m338.66 602.93c-3.737 7.475-4.925 16.271-4.336 25.719 0 0 0 .001.011.021 2.612 41.506 39.554 95.31 44.748 102.28 7.279 9.798 13.443 12.844 34.918 18.904 7.289 2.045 19.854 2.675 27.04.641 16.686-4.719 23.934-11.01 37.758-20.97 35.962-25.905 81.2-19.38 107.16-15.14 29.808 4.853 95.13 38.872 109.52 38.872 4.904 0 11.997-3.521 19.647-8.621.382-.248.765-.506 1.146-.774 6.845-4.636 14.06-10.438 20.566-16.04 7.3-6.298 13.681-12.358 17.583-16.261 11.513-11.492 7.187-20.836 0-28.03-8.373-8.394-95.14-76.95-131.09-104.98-35.94-28.05-48.17-38.12-88.42-42.41-40.28-4.337-114.61 8.734-128.71 11.481-46.05 9-67.53 55.32-67.53 55.32"/><path d="m736.41 727.32c-37.51-23.345-73.62-45.76-113.56-58.4-7.785-2.457-22.787-1.012-24.521-9.922-2.034-10.438 12.05-13.04 18.399-18.12 7.919-6.309 2.715-14.836 7.341-22.11 5.234-8.238 14.795.981 19.431 6.474 16.644 19.669 34.33 33.752 56.21 47.45 9.923 6.205 39.37 26.917 54.711 38.853"/></g></svg>