<svg xmlns="http://www.w3.org/2000/svg" width="850.39" height="850.39" viewBox="0 0 850.394 850.394" overflow="visible" enable-background="new 0 0 850.394 850.394"><path d="m280.37 116.02c27.05-26.849 82.86-30 116.99-.557 34.697 35.699 45.4 84.14 45.4 133.96 0 57.3-33.32 123.33-67.15 164.5l-1.726 1.336c-11.856 11.857-31.413 19.13-42.935 16.198-10.817-2.745-11.931-19.37-28.17-19.37-8.238 0-4.991 9.425-9.853 14.899-5.344 6.05-10.09 6.938-17.886 8.274-27.776 4.75-51.637-13.266-51.637-13.266-55.12-46.13-99.21-98.45-99.21-158.73 0-56.33 5.622-113.33 32.823-136.32 34.21-28.908 69.45-24.529 92.22-16.346-24.16-.111-46.5 10.02-63.753 32.04-9.444 12.04-13.879 26.904-17.2 41.488-1.799 7.812-12.375 40.486-8.683 46.701 8.832 14.677 72.25-32.841 79.97-41.58 14.88-16.903 20.224-50.39 33.825-66.57.52.371.798.575.798.575 1.447-2.041 3.061-3.989 4.787-5.826.019-.019.019-.037.056-.037.425-.481.87-.945 1.334-1.371" fill="#00e800"/><path d="m273.4 122.68c-13.601 16.18-18.944 49.67-33.825 66.57-7.719 8.739-71.14 56.26-79.97 41.58-3.692-6.215 6.884-38.89 8.683-46.701 3.321-14.584 7.756-29.446 17.2-41.488 17.256-22.02 39.595-32.16 63.753-32.04 12.729 4.546 21.561 10.297 24.16 12.08" fill="#33a02c"/><g fill="none" stroke="#000" stroke-width="14"><path d="m216.9 47.551c0 0 27.11 8.739 36.459 21.727 10.576 14.658 14.584 37.795 15.438 43.529.13.872.186 1.336.186 1.336"/><path d="m280.67 116.11c-.093-.037-.204-.074-.297-.093-3.877-1.299-7.737-2.375-11.578-3.21-6.605-1.429-13.14-2.171-19.557-2.208-24.16-.111-46.5 10.02-63.753 32.04-9.444 12.04-13.879 26.904-17.2 41.488-1.799 7.812-12.375 40.486-8.683 46.701 8.832 14.677 72.25-32.841 79.97-41.58 14.88-16.903 20.224-50.39 33.825-66.57 1.707-2.059 3.562-3.822 5.584-5.25"/><path d="m397.36 115.46c.111.111.223.204.334.297l-1.781-1.781c.482.482.983.983 1.447 1.484z"/><path d="m397.36 115.46c34.697 35.699 45.4 84.14 45.4 133.96 0 57.3-33.32 123.33-67.15 164.5l-1.726 1.336c-11.856 11.857-31.413 19.13-42.935 16.198-10.817-2.745-11.931-19.37-28.17-19.37-8.238 0-4.991 9.425-9.853 14.899-5.344 6.05-10.09 6.938-17.886 8.274-27.776 4.75-51.637-13.266-51.637-13.266-55.12-46.13-99.21-98.45-99.21-158.73 0-56.33 5.622-113.33 32.823-136.32 34.21-28.908 69.45-24.529 92.22-16.346 12.729 4.546 21.561 10.298 24.16 12.08.52.371.798.575.798.575 1.447-2.041 3.061-3.989 4.787-5.826.019-.019.019-.037.056-.037.427-.482.872-.946 1.336-1.373 27.05-26.848 82.86-30 116.99-.556"/></g><path d="m626.74 376.18c100.09 0 181.2 83.73 181.2 187 0 103.29-81.11 187.02-181.2 187.02-100.06 0-181.21-83.73-181.21-187.02 0-103.27 81.14-187 181.21-187m-16.03 76.67l10.788-16.18-19.496 1.423-12.146-15.07-4.745 18.773-18.282 6.858 16.563 10.195.841 19.28 14.967-12.471 18.817 5.063-7.307-17.872" fill="#ffa500"/><path d="m621.49 436.67l-10.78 16.18 7.3 17.88-18.82-5.07-14.96 12.47-.84-19.28-16.57-10.19 18.29-6.86 4.74-18.77 12.15 15.07z"/><path d="m807.94 563.18c0 103.29-81.11 187.02-181.2 187.02-100.06 0-181.21-83.73-181.21-187.02 0-103.27 81.14-187 181.21-187 100.09 0 181.2 83.73 181.2 187z" fill="none" stroke="#000" stroke-width="14"/><path d="m322.29 580.16c32.07 3.646 66.67 14.11 78.94 44.911 14.526 36.464-19.14 81.39-44.39 108.66-42.4 45.816-98.81 48.42-134.49 27.07-35.34-21.15-57.02-66.21-49.826-120.24 5.659-42.42 30.3-111.04 81.74-112.44 30.795-.847 60.723 22.891 67.58 50.18.164.622.305 1.243.433 1.867" fill="#be0000"/><path d="m504.42 405.48c.239 11.518-49.3 14.28-53.45 2.592-.027-.051-.041-.106-.05-.169 12.328-5.197 52.952-28.388 53.5-2.423" fill="#9e5b16"/><path d="m450.97 408.07c-.134-.001-.268-.02-.406-.021.12-.045.231-.095.356-.148.009.063.022.118.05.169" fill="#fff"/><g fill="none" stroke="#000" stroke-width="14"><path d="m301.32 578.58c6.669.286 13.76.765 20.973 1.585 32.07 3.646 66.67 14.11 78.94 44.911 14.526 36.464-19.14 81.39-44.39 108.66-42.41 45.816-98.81 48.42-134.49 27.07-35.34-21.15-57.02-66.21-49.826-120.24 5.659-42.42 30.3-111.04 81.74-112.44 30.795-.847 60.723 22.891 67.58 50.18.164.622.305 1.243.433 1.867.034.137.063.282.093.429"/><path d="m321.82 578.36c.001-.017.026-.043.036-.06 22.413-37.491 26.43-82.16 52.17-118.58 18.723-26.495 42.537-53.825 76.54-51.67.139.0001.272.012.406.021"/><path d="m450.33 408.14c.079-.034.152-.06.231-.094.12-.045.231-.095.356-.148 12.328-5.197 52.952-28.387 53.5-2.423.239 11.518-49.3 14.28-53.45 2.592-.027-.051-.041-.106-.05-.169-.061-.153-.105-.331-.142-.504"/></g></svg>