<svg xmlns="http://www.w3.org/2000/svg" width="850.39" height="850.39" viewBox="0 0 850.394 850.394" overflow="visible" enable-background="new 0 0 850.394 850.394"><path d="m431.45 268.76h.05v283.46c0 35.55-49.41 64.38-110.37 64.38-60.95 0-110.37-28.83-110.37-64.38v-283.46c0 0-3.25-44.37 38.95-59.52 0 0-2.18.17 11.44-2.29 7.89 14.66 31.04 25.27 58.37 25.27 24.83 0 46.2-8.76 55.83-21.36l-1.35-1.31v-7.55c14.37 2.46 16.9 7.11 16.9 7.11 39.64 14.23 40.58 54.79 40.55 59.65" fill="#ed107f"/><path d="m319.52 110.52c28.77 0 52.08-7.24 52.08-16.17l.98-.8c.93 2.31 1.42 4.71 1.42 7.17v101.28 7.55l1.35 1.31c-9.63 12.6-31 21.36-55.83 21.36-27.33 0-50.48-10.61-58.37-25.27h2.13v-106.23c0-2.19.39-4.33 1.13-6.39l3.02.02c0 8.93 23.31 16.17 52.09 16.17" fill="#fff5b4"/><g fill="#c8c8c8"><path d="m449.87 682.95c12.88 25.99-10.96 64.04-53.22 84.939-42.27 20.92-86.96 16.82-99.82-9.17-12.87-26.01 10.97-64.03 53.24-84.95 25.8-12.779 52.52-16.21 72.34-11.03 8.58 2.24 15.87 6.1 21.23 11.51 2.531 2.56 4.631 5.46 6.231 8.7"/><path d="m630.46 495.09c16.04 5.44 19.83 23.37 6.6 33.391-25.5 19.309-191.33 145.53-191.33 145.53l-2.091.24c-5.359-5.41-12.649-9.27-21.23-11.51l.08-.29 165-146.1c0 .0001 26.89-26.659 42.97-21.259"/></g><path d="m372.58 93.55l-.98.8c0 8.93-23.31 16.17-52.08 16.17-28.78 0-52.09-7.24-52.09-16.17l-3.02-.02c5.16-14.47 27.47-25.35 54.23-25.35 26.28 0 48.28 10.49 53.94 24.57" fill="#fff5b4"/><g fill="none" stroke="#231f20" stroke-width="21"><path d="m443.64 674.25c2.53 2.56 4.63 5.46 6.23 8.7 12.88 25.99-10.96 64.04-53.22 84.939-42.27 20.92-86.96 16.82-99.82-9.17-12.87-26.01 10.97-64.03 53.24-84.95 25.8-12.779 52.52-16.21 72.34-11.03 8.58 2.24 15.87 6.1 21.23 11.51z"/><path d="m422.49 662.45l165-146.1c0 0 26.89-26.659 42.97-21.26 16.04 5.44 19.83 23.37 6.6 33.391-25.5 19.31-191.33 145.53-191.33 145.53"/><path d="m431.5 557.74v-5.52-283.46"/><path d="m261.15 206.95c-13.62 2.46-11.44 2.29-11.44 2.29-42.2 15.15-38.95 59.52-38.95 59.52v283.46 4.34"/><path d="m431.44 269.24c0 0 .001-.17.001-.48.03-4.86-.91-45.42-40.55-59.65 0 0-2.53-4.65-16.9-7.11"/><path d="m431.5 552.22c0 35.55-49.41 64.38-110.37 64.38-60.95 0-110.37-28.83-110.37-64.38"/><path d="m263.28 207.08v-.13-106.23c0-2.19.39-4.33 1.13-6.39 5.16-14.47 27.47-25.35 54.23-25.35 26.28 0 48.28 10.49 53.94 24.57.93 2.31 1.42 4.71 1.42 7.17v101.28 7.55"/><path d="m371.6 94.35c0 8.93-23.31 16.17-52.08 16.17-28.78 0-52.09-7.24-52.09-16.17"/><path d="m377.54 207.58c-.64 1.12-1.37 2.21-2.19 3.28-9.63 12.6-31 21.36-55.83 21.36-27.33 0-50.48-10.61-58.37-25.27"/></g><g fill="#34a047"><path d="m744.18 73.23c-7.05.215-12.572 2.107-12.572 4.409 0 2.443 6.233 4.427 13.92 4.427 7.683 0 13.916-1.984 13.916-4.427 0-2.446-6.233-4.43-13.916-4.43-.456 0-.908.007-1.348.021m-112.93 31.19v175.24l-36.925-43.671.134-159.69 63.49-5.785 79.78-7.266 15.01-1.368 49.35 22.08-.64 1.43-170.2 19.04m20.803-21.849c-.869-.055-1.766-.082-2.686-.082-7.687 0-13.92 1.98-13.92 4.426 0 2.446 6.233 4.43 13.92 4.43s13.916-1.984 13.916-4.43c0-2.154-4.83-3.947-11.23-4.344"/><path d="m801.44 85.39v157.32l-170.2 36.952v-175.24l170.2-19.04m-44.36 95.16v-29.752l-25.924 4.04v-29.539l-26.778 4.252v29.539l-24.65 4.249v30.387l25.715-4.676v32.728l27.2-5.525v-31.452l24.438-4.248"/></g><path fill="#fff" d="m757.08 150.8v29.75l-24.44 4.25v31.45l-27.2 5.53v-32.73l-25.71 4.67v-30.38l24.65-4.25v-29.54l26.77-4.25v29.54z"/><g fill="#231f20"><path d="m744.18 73.23c.44-.014.893-.021 1.348-.021 7.683 0 13.916 1.984 13.916 4.43 0 2.443-6.233 4.427-13.916 4.427-7.687 0-13.92-1.984-13.92-4.427 0-2.302 5.517-4.194 12.572-4.409"/><path d="m652.05 82.58c6.4.396 11.23 2.189 11.23 4.344 0 2.446-6.229 4.43-13.916 4.43s-13.92-1.984-13.92-4.43c0-2.446 6.233-4.426 13.92-4.426.92 0 1.817.028 2.686.082"/></g><g fill="none" stroke="#231f20"><g stroke-width="7.184"><path d="m631.25 104.42v175.24"/><path d="m803.41 84.55l-1.33-.593-49.34-22.08-15.01 1.365-79.78 7.27-63.49 5.78-.14 159.7 36.93 43.67 170.19-36.95v-157.32l-170.19 19.03-33.58-24.91"/></g><path stroke-width="4.789" d="m731.15 154.84v-29.54l-26.77 4.25v29.54l-24.65 4.25v30.38l25.71-4.67v32.73l27.2-5.53v-31.45l24.44-4.25v-29.75z"/><path stroke-linejoin="round" stroke-linecap="round" stroke-width="14.368" d="m652.05 82.58l5.9-12.07 12.08-24.713 53.98-3.797 13.72 21.24 6.45 9.99"/><g stroke-width="2.53"><path d="m663.28 86.92c0 2.446-6.229 4.43-13.916 4.43s-13.92-1.984-13.92-4.43c0-2.446 6.233-4.426 13.92-4.426.92 0 1.816.027 2.686.082 6.4.397 11.23 2.19 11.23 4.344z"/><path d="m759.44 77.64c0 2.443-6.233 4.427-13.916 4.427-7.687 0-13.92-1.984-13.92-4.427 0-2.302 5.518-4.194 12.572-4.409.44-.014.893-.021 1.348-.021 7.683 0 13.916 1.984 13.916 4.43z"/></g></g></svg>