<svg xmlns="http://www.w3.org/2000/svg" width="850.39" height="850.39" viewBox="0 0 850.394 850.394" overflow="visible" enable-background="new 0 0 850.394 850.394"><path fill="#efdcef" d="m441.88 484.37h80.74v80.73h-80.74z"/><path fill="none" stroke="#231f20" stroke-width="14" d="m441.88 484.37h80.74v80.73h-80.74z"/><path fill="#efdcef" d="m147.71 158.5h80.74v80.73h-80.74z"/><path fill="none" stroke="#231f20" stroke-width="14" d="m147.71 158.5h80.74v80.73h-80.74z"/><path fill="#efdcef" d="m283.71 112.5h80.74v80.73h-80.74z"/><path fill="none" stroke="#231f20" stroke-width="14" d="m283.71 112.5h80.74v80.73h-80.74z"/><path fill="#efdcef" d="m583.71 572.5h80.74v80.73h-80.74z"/><path fill="none" stroke="#231f20" stroke-width="14" d="m583.71 572.5h80.74v80.73h-80.74z"/><path fill="#efdcef" d="m463.71 640.5h80.74v80.73h-80.74z"/><g fill="none"><g stroke="#231f20"><path stroke-width="14" d="m463.71 640.5h80.74v80.73h-80.74z"/><ellipse cx="527.11" cy="591.93" rx="223.91" ry="186.59" stroke-width="7"/></g><g stroke="#000" stroke-linejoin="round" stroke-linecap="round" stroke-width="14"><path d="m472.4 243.17l-30.01 89.86-85.38-41.24"/><path d="m246.75 296c9.68-40.3 49.909-73.92 91.39-73.92 52.39 0 98.14 42.811 98.14 103.93"/></g></g><g fill="#5668af"><circle cx="210.42" cy="313.83" r="14.292"/><circle cx="210.42" cy="343.67" r="14.292"/><circle cx="179.98" cy="373.5" r="14.292"/><circle cx="149.54" cy="373.5" r="14.292"/><circle cx="119.1" cy="343.67" r="14.292"/><circle cx="119.1" cy="313.83" r="14.292"/><circle cx="149.54" cy="284" r="14.292"/><circle cx="179.98" cy="284" r="14.292"/><circle cx="210.42" cy="373.5" r="14.292"/><circle cx="119.1" cy="373.5" r="14.292"/><circle cx="119.1" cy="284" r="14.292"/><circle cx="210.42" cy="284" r="14.292"/></g></svg>