<svg xmlns="http://www.w3.org/2000/svg" width="850.39" height="850.39" viewBox="0 0 850.394 850.394" overflow="visible" enable-background="new 0 0 850.394 850.394"><g stroke="#231f20"><g fill="#231f20" stroke-width="7"><path d="m501.39 474.78c0 29.876-20.319 54.08-45.39 54.08-25.06 0-45.39-24.21-45.39-54.08 0-29.873 20.324-54.09 45.39-54.09 25.07 0 45.39 24.21 45.39 54.09z"/><path d="m690.7 438.08c0 29.872-20.328 54.08-45.39 54.08-25.07 0-45.39-24.21-45.39-54.08 0-29.873 20.32-54.09 45.39-54.09 25.07 0 45.39 24.21 45.39 54.09z"/></g><path fill="none" stroke-width="32" d="m489.74 469.21v-247.25l189.37-54.09v264.21"/><path d="m317.59 622.19c0 29.881-20.324 54.09-45.39 54.09-25.07 0-45.39-24.21-45.39-54.09 0-29.864 20.324-54.08 45.39-54.08 25.07 0 45.39 24.21 45.39 54.08z" fill="#231f20" stroke-width="7"/><g fill="none"><path stroke-width="32" d="m305.94 616.61v-247.24"/><g stroke-width="14"><path d="m105.05 411.45h641.31"/><path d="m105.05 495.79h641.31"/><path d="m105.05 582.72h641.31"/><path d="m105.05 667.71h641.31"/></g></g></g></svg>