<?xml version="1.0" encoding="UTF-8" standalone="no"?>
<svg
   xmlns:dc="http://purl.org/dc/elements/1.1/"
   xmlns:cc="http://creativecommons.org/ns#"
   xmlns:rdf="http://www.w3.org/1999/02/22-rdf-syntax-ns#"
   xmlns:svg="http://www.w3.org/2000/svg"
   xmlns="http://www.w3.org/2000/svg"
   xmlns:sodipodi="http://sodipodi.sourceforge.net/DTD/sodipodi-0.dtd"
   xmlns:inkscape="http://www.inkscape.org/namespaces/inkscape"
   width="850.39"
   height="850.39"
   viewBox="0 0 850.394 850.394"
   overflow="visible"
   enable-background="new 0 0 850.394 850.394"
   id="svg2"
   version="1.1"
   inkscape:version="0.48.4 r9939"
   sodipodi:docname="more.svg">
  <metadata
     id="metadata66">
    <rdf:RDF>
      <cc:Work
         rdf:about="">
        <dc:format>image/svg+xml</dc:format>
        <dc:type
           rdf:resource="http://purl.org/dc/dcmitype/StillImage" />
        <dc:title></dc:title>
      </cc:Work>
    </rdf:RDF>
  </metadata>
  <defs
     id="defs64" />
  <sodipodi:namedview
     pagecolor="#ffffff"
     bordercolor="#666666"
     borderopacity="1"
     objecttolerance="10"
     gridtolerance="10"
     guidetolerance="10"
     inkscape:pageopacity="0"
     inkscape:pageshadow="2"
     inkscape:window-width="1920"
     inkscape:window-height="1003"
     id="namedview62"
     showgrid="false"
     inkscape:zoom="0.68"
     inkscape:cx="126.6656"
     inkscape:cy="425.19501"
     inkscape:window-x="-9"
     inkscape:window-y="-9"
     inkscape:window-maximized="1"
     inkscape:current-layer="svg2" />
  <path
     fill="#efdcef"
     d="m441.88 484.37h80.74v80.73h-80.74z"
     id="path4" />
  <path
     fill="none"
     stroke="#231f20"
     stroke-width="14"
     d="m441.88 484.37h80.74v80.73h-80.74z"
     id="path6" />
  <path
     fill="#efdcef"
     d="m147.71 158.5h80.74v80.73h-80.74z"
     id="path8" />
  <path
     fill="none"
     stroke="#231f20"
     stroke-width="14"
     d="m147.71 158.5h80.74v80.73h-80.74z"
     id="path10" />
  <path
     fill="#efdcef"
     d="m283.71 112.5h80.74v80.73h-80.74z"
     id="path12" />
  <path
     fill="none"
     stroke="#231f20"
     stroke-width="14"
     d="m283.71 112.5h80.74v80.73h-80.74z"
     id="path14" />
  <path
     fill="#efdcef"
     d="m583.71 572.5h80.74v80.73h-80.74z"
     id="path16" />
  <path
     fill="none"
     stroke="#231f20"
     stroke-width="14"
     d="m583.71 572.5h80.74v80.73h-80.74z"
     id="path18" />
  <path
     fill="#efdcef"
     d="m463.71 640.5h80.74v80.73h-80.74z"
     id="path20" />
  <g
     fill="none"
     id="g22">
    <g
       stroke="#231f20"
       id="g24">
      <path
         stroke-width="14"
         d="m463.71 640.5h80.74v80.73h-80.74z"
         id="path26" />
      <ellipse
         cx="527.11"
         cy="591.93"
         rx="223.91"
         ry="186.59"
         stroke-width="7"
         id="ellipse28" />
    </g>
    <g
       stroke="#000"
       stroke-linejoin="round"
       stroke-linecap="round"
       stroke-width="14"
       id="g30">
      <path
         d="m472.4 243.17l-30.01 89.86-85.38-41.24"
         id="path32" />
      <path
         d="m246.75 296c9.68-40.3 49.909-73.92 91.39-73.92 52.39 0 98.14 42.811 98.14 103.93"
         id="path34" />
    </g>
  </g>
  <g
     fill="#5668af"
     id="g36">
    <circle
       cx="210.42"
       cy="313.83"
       r="14.292"
       id="circle38" />
    <circle
       cx="210.42"
       cy="343.67"
       r="14.292"
       id="circle40" />
    <circle
       cx="179.98"
       cy="373.5"
       r="14.292"
       id="circle42" />
    <circle
       cx="149.54"
       cy="373.5"
       r="14.292"
       id="circle44" />
    <circle
       cx="119.1"
       cy="343.67"
       r="14.292"
       id="circle46" />
    <circle
       cx="119.1"
       cy="313.83"
       r="14.292"
       id="circle48" />
    <circle
       cx="149.54"
       cy="284"
       r="14.292"
       id="circle50" />
    <circle
       cx="179.98"
       cy="284"
       r="14.292"
       id="circle52" />
    <circle
       cx="210.42"
       cy="373.5"
       r="14.292"
       id="circle54" />
    <circle
       cx="119.1"
       cy="373.5"
       r="14.292"
       id="circle56" />
    <circle
       cx="119.1"
       cy="284"
       r="14.292"
       id="circle58" />
    <circle
       cx="210.42"
       cy="284"
       r="14.292"
       id="circle60" />
  </g>
  <rect
     style="fill:#000000;fill-opacity:1;stroke:none"
     id="rect3043"
     width="1007.1196"
     height="9.8159809"
     x="-485.11801"
     y="593.29175"
     transform="matrix(0.70710678,-0.70710678,0.70710678,0.70710678,0,0)"
     ry="4.9079905"
     inkscape:transform-center-x="25.52144"
     inkscape:transform-center-y="461.34896" />
  <rect
     style="fill:#000000;fill-opacity:1;stroke:none"
     id="rect3043-1"
     width="1007.1196"
     height="9.8159809"
     x="91.068428"
     y="-20.967665"
     transform="matrix(0.70710678,0.70710678,-0.70710678,0.70710678,0,0)"
     ry="4.9079905"
     inkscape:transform-center-x="461.34895"
     inkscape:transform-center-y="-25.521437" />
</svg>
