<svg xmlns="http://www.w3.org/2000/svg" width="850.39" height="850.39" viewBox="0 0 850.394 850.394" overflow="visible" enable-background="new 0 0 850.394 850.394"><path d="m535.38 505.01l27.72 182.72-27.09-.28-103.99-1.07-14.04-.14.02-2.24-.1-325.75v-.78h4.94l46.34-60.58-12.899-29.66 40.989 14.32-21.55-52.09c4.66 2.63 9.851 5.62 15.28 8.86 19.34 11.53 41.8 26.17 54.24 38.61 0 0 27.5 55.43 47.48 108.35l-1.439.31-61.55 23.74-2.221-4.85 7.871 100.53" fill="#fff"/><g fill="#ffeec8"><path d="m604.4 572.78l-74.67-163.45 61.55-23.74 1.439-.31c6.66 17.64 12.48 35 16.181 49.94 10.18 41.19 35.28 127.53 35.28 127.53l-39.779 10.03"/><path d="m242.78 380.31l62.43 23.26-76.88 168.28-36.33-17.85-1.13-.32c6.48-22.46 24.65-85.87 32.95-119.39 4.01-16.19 10.52-35.23 17.88-54.39l1.08.41"/></g><path d="m301.96 505.79l4.29-102.18-1.04-.04-62.43-23.26-1.08-.41c19.8-51.52 45.76-103.89 45.76-103.89 12.45-12.43 36.42-27.07 57.27-38.6 5.21-2.88 10.23-5.57 14.83-7.98l1.54.64-21.62 52.26 40.98-14.33-12.9 29.67 46.34 60.58h4l.1 325.75-.02 2.24-17.96-.181-102.01-1.05-21.37-.22 25.32-179" fill="#fff"/><path d="m644.18 562.75c9.79 31.19 11.641 69.62 8.221 81.79-2.01 7.2-11.32 17.37-20.11 16.34-9.72-1.06-11.96-23.97-16.65-31.27-7.35 1.529-3.58 12.25-9.02 12.25-4.7-4.69-6.29-17.63-6.29-31.17 0-15.99 2.21-32.82 4.07-37.91l39.779-10.03" fill="#fff5b4"/><path d="m536.01 687.45l-.001.55c-.74 27.98-1.99 95.49-3.06 112.23h-96.44l-4.5-112.23.02-1.62 103.99 1.07" fill="#394ea1"/><path d="m475.72 229.46l21.55 52.09-40.989-14.32 12.899 29.66-46.34 60.58 26.851-135.39-.561-.53c.97-1.03 1.94-2.11 2.9-3.24l3.38.07c0 0 8.4 4.35 20.31 11.08" fill="#fff"/><path d="m478.88 134.48l.68-.15c1.551-.56 3.29-.74 5.19-.44 7.23 1.16 6.25 9.27 4.27 13.32-4.829 9.85-2.619 13.48-3.229 20.99-.24 2.86-3.5 8.41-10.3 7.11l-.36-.1c2.43-8.47 3.86-17.39 3.86-26.46 0-5.11-.061-8.65-.23-14.81.049.18.089.36.119.54" fill="#ffeec8"/><path d="m478.76 133.94c-2.45-10.02-13.34-18.58-16.13-22.42-15.01-20.73-26.37-28.53-29.16-30.25-.43-.27-.66-.39-.66-.39-.029.02-.05.04-.079.06-12.65 8.83-55.35 22.91-60.771 26.89 0 0-10.07 10.38-16.79 19.08-2.24 2.9-4.11 5.61-5.11 7.69l-.64-20.48c0-32.68 26.67-51.64 26.67-51.64 3.08-2.1 5.15-3.16 5.15-3.16 13.6-8.09 31.2-10.94 53.64-8.33 27.09 3.16 47.88 30.15 51.84 63.74.65 5.46-1.02 13.38-1.97 19.16-1.9-.3-3.64-.12-5.19.44l-.68.15c-.03-.18-.07-.36-.12-.54" fill="#9c5c25"/><path d="m387.06 222.91c-1.56-1.55-3.12-3.23-4.65-5.01-9.26-10.78-17.73-25.53-22.46-42.06-2.47-8.65-3.92-17.79-3.92-27.09 0-3.08 0-8.48.04-13.69.03-2.92.07-5.79.12-8.15h-1.02c6.72-8.7 16.79-19.08 16.79-19.08 5.42-3.98 48.12-18.06 60.771-26.89.14.12.399.23.739.33 2.79 1.72 14.15 9.52 29.16 30.25 2.79 3.84 13.68 12.4 16.13 22.42.17 6.16.23 9.7.23 14.81 0 9.07-1.431 17.99-3.86 26.46-4.87 16.99-13.75 32.16-23.1 43.1-.96 1.13-1.931 2.21-2.9 3.24-4.12 4.41-8.27 7.95-12.14 10.42-6.681 3.22-11.76 2.75-19.48 2.75-7.14 0-11.71.72-17.98-2.06-4.05-2.27-8.29-5.58-12.47-9.75m11.17-78.52c-2.53-1.95-5.73-3.16-8.86-3.23-2.59-.06-5 .56-7.19 1.63v.001l.55 1.16c-.18.52-.12.99-.12 1.92 0 3.72 3.16 6.74 7.07 6.74 3.9 0 8.32-4.23 8.32-7.95l.23-.28m21.94 45.92c-.07.02-.14.03-.22.04l.59-.03c-.13 0-.25 0-.37-.001m35.22-47.77c-2.159-1.06-4.529-1.65-7.06-1.59-3.38.08-6.85 1.48-9.47 3.72l2.02.001c.001.23.08.46.08.99 0 3.72 3.17 6.74 7.07 6.74 3.89 0 7.05-3.02 7.05-6.74 0-1.02.08-1.49-.18-2.08l.49-1.05" fill="#ffeec8"/><path d="m455.39 142.54l-.489 1.05c.26.59.18 1.06.18 2.08 0 3.72-3.16 6.74-7.05 6.74-3.9 0-7.07-3.02-7.07-6.74 0-.53-.07-.76-.08-.99l-2.02-.001c2.62-2.24 6.09-3.64 9.47-3.72 2.529-.06 4.899.53 7.06 1.59m-7.41 5.46c1.409 0 2.56-1.02 2.56-2.27 0-1.26-1.15-2.28-2.56-2.28-1.4 0-2.54 1.02-2.54 2.28 0 1.25 1.14 2.27 2.54 2.27" fill="#fff"/><path d="m450.54 145.73c0 1.25-1.15 2.27-2.56 2.27-1.4 0-2.54-1.02-2.54-2.27 0-1.26 1.14-2.28 2.54-2.28 1.41 0 2.56 1.02 2.56 2.28" fill="#231f20"/><g fill="#fff"><path d="m417.9 357.47v.78h-4l-26.84-135.34c4.18 4.17 8.42 7.48 12.47 9.75 6.27 2.78 10.84 2.06 17.98 2.06 7.72 0 12.8.47 19.48-2.75 3.87-2.47 8.02-6.01 12.14-10.42l.561.53-26.851 135.39h-4.94"/><path d="m361.1 230.07l-1.54-.64c11.33-5.94 20.1-10.2 22.85-11.53 1.53 1.78 3.09 3.46 4.65 5.01l26.84 135.34-46.34-60.58 12.9-29.67-40.98 14.33 21.62-52.26"/></g><path d="m400.02 686.06l-.02 1.94-.52 112.23-95.67.699c-1.24-19.12-4.95-83.25-5.81-114.93l.001-.99 102.01 1.051" fill="#394ea1"/><path d="m398.23 144.39l-.23.28c0 3.72-4.42 7.95-8.32 7.95-3.91 0-7.07-3.02-7.07-6.74 0-.93-.06-1.4.12-1.92l-.55-1.16v-.001c2.19-1.07 4.6-1.69 7.19-1.63 3.13.07 6.33 1.28 8.86 3.23m-8.58 3.63c1.41 0 2.54-1.02 2.54-2.28 0-1.26-1.13-2.27-2.54-2.27-1.41 0-2.55 1.01-2.55 2.27 0 1.26 1.14 2.28 2.55 2.28" fill="#fff"/><path d="m392.19 145.74c0 1.26-1.13 2.28-2.54 2.28-1.41 0-2.55-1.02-2.55-2.28 0-1.26 1.14-2.27 2.55-2.27 1.41 0 2.54 1.01 2.54 2.27" fill="#231f20"/><path d="m359.95 175.84l-.63.18c-6.8 1.3-10.06-4.24-10.3-7.1-.62-7.52 1.6-11.14-3.23-21-1.99-4.04-2.96-12.15 4.27-13.32 1.89-.3 3.63-.11 5.19.45l.82.001c-.04 5.21-.04 10.61-.04 13.69 0 9.3 1.45 18.44 3.92 27.09" fill="#ffeec8"/><path d="m228.33 571.85c1.86 5.091 4.05 21.9 4.05 37.881 0 13.56-1.58 26.52-6.29 31.22-5.4 0-1.66-10.75-9.04-12.24-4.68 7.29-6.91 30.19-16.63 31.26-8.76 1.04-18.09-9.16-20.1-16.33-3.43-12.199-1.59-50.609 8.2-81.82 0 0 .87-3 2.35-8.141l1.13.319 36.33 17.85" fill="#fff5b4"/><g fill="none" stroke="#231f20"><g stroke-width="14"><path d="m188.52 561.82c0 0 .87-3 2.35-8.141 6.48-22.46 24.65-85.87 32.95-119.39 4.01-16.19 10.52-35.23 17.88-54.39 19.8-51.52 45.76-103.89 45.76-103.89 12.45-12.43 36.42-27.07 57.27-38.6 5.21-2.88 10.23-5.57 14.83-7.98 11.33-5.94 20.1-10.2 22.85-11.53.6-.28.91-.43.91-.43"/><path d="m305.21 403.57l-76.88 168.28c1.86 5.091 4.05 21.9 4.05 37.881 0 13.56-1.58 26.52-6.29 31.22-5.4 0-1.66-10.75-9.04-12.24-4.68 7.29-6.91 30.19-16.63 31.26-8.76 1.04-18.09-9.16-20.1-16.33-3.43-12.199-1.59-50.609 8.2-81.82"/><path d="m303.81 800.93c-1.24-19.12-4.95-83.25-5.81-114.93"/><path d="m644.18 562.75c0 0-25.1-86.34-35.28-127.53-3.7-14.94-9.521-32.3-16.181-49.94-19.979-52.92-47.48-108.35-47.48-108.35-12.44-12.44-34.9-27.08-54.24-38.61-5.43-3.24-10.62-6.23-15.28-8.86-11.91-6.73-20.31-11.08-20.31-11.08"/><path d="m532.94 800.23c1.069-16.74 2.319-84.25 3.06-112.23"/><path d="m400 688l-.52 112.23"/><path d="M 436.5,800.23 432,688"/><path d="m306.44 399.02l-.19 4.59-4.29 102.18-25.32 179 21.37.22 102.01 1.05 17.96.181 14.04.14 103.99 1.07 27.09.28-27.72-182.72-7.87-100.53 2.221 4.85 74.67 163.45c-1.86 5.09-4.07 21.92-4.07 37.91 0 13.54 1.59 26.479 6.29 31.17 5.439 0 1.67-10.721 9.02-12.25 4.69 7.3 6.931 30.21 16.65 31.27 8.79 1.03 18.1-9.14 20.11-16.34 3.42-12.17 1.569-50.6-8.221-81.79"/></g><g stroke-linecap="square" stroke-miterlimit="10"><path d="m374.72 148.91c2.09-2.53 4.6-4.71 7.46-6.11v-.001c2.19-1.07 4.6-1.69 7.19-1.63 3.13.07 6.33 1.28 8.86 3.23 1.45 1.12 2.67 2.48 3.54 4.01" stroke-width="5.03"/><path d="m398 144.67c0 3.72-4.42 7.95-8.32 7.95-3.91 0-7.07-3.02-7.07-6.74 0-.93-.06-1.4.12-1.92" stroke-width="3.352"/><path d="m462.98 148.7c-2.12-2.56-4.681-4.77-7.591-6.16-2.159-1.06-4.529-1.65-7.06-1.59-3.38.08-6.85 1.48-9.47 3.72-1.181 1.02-2.19 2.21-2.931 3.53" stroke-width="5.03"/><path d="m440.88 144.68c.001.23.08.46.08.99 0 3.72 3.17 6.74 7.07 6.74 3.89 0 7.05-3.02 7.05-6.74 0-1.02.08-1.49-.18-2.08" stroke-width="3.352"/></g><g stroke-width="6.704"><path d="m355.25 135.05c-1.56-.56-3.3-.75-5.19-.45-7.23 1.17-6.26 9.28-4.27 13.32 4.83 9.86 2.61 13.48 3.23 21 .24 2.86 3.5 8.4 10.3 7.1"/><path d="m479.56 134.33c1.551-.56 3.29-.74 5.19-.44 7.23 1.16 6.25 9.27 4.27 13.32-4.829 9.85-2.619 13.48-3.229 20.99-.24 2.86-3.5 8.41-10.3 7.11"/></g><path d="m403.09 208.25c8.88 3.54 22.98 3.13 30.54-.17" stroke-width="7"/><path d="m478.74 133.12c.001.28.001.55.02.82.17 6.16.23 9.7.23 14.81 0 9.07-1.431 17.99-3.86 26.46-4.87 16.99-13.75 32.16-23.1 43.1-.96 1.13-1.931 2.21-2.9 3.24-4.12 4.41-8.27 7.95-12.14 10.42-6.681 3.22-11.76 2.75-19.48 2.75-7.14 0-11.71.72-17.98-2.06-4.05-2.27-8.29-5.58-12.47-9.75-1.56-1.55-3.12-3.23-4.65-5.01-9.26-10.78-17.73-25.53-22.46-42.06-2.47-8.65-3.92-17.79-3.92-27.09 0-3.08 0-8.48.04-13.69.03-2.92.07-5.79.12-8.15" stroke-width="14"/><g stroke-width="7"><path d="m420.17 190.31c3.41-.61 2.79-2.62 6.42-1.74 3.11.75 6.42 2.31 7.19-2.56.54-3.35-1.98-3.79-3.32-6.49"/><path d="m420.17 190.31c.12.001.24.001.37.001l-.59.03c.08-.001.15-.02.22-.04z"/><path d="m409.69 148.54c5.58 6.13 3.89 20.54 1.39 28.03l-1.05 2.92c-1.34 2.69-3.86 3.12-3.32 6.48.78 4.86 4.08 3.31 7.19 2.56 3.58-.86 2.79 1.62 6.27 1.78"/></g><g stroke-width="3.352"><path d="m392.19 145.74c0 1.26-1.13 2.28-2.54 2.28-1.41 0-2.55-1.02-2.55-2.28 0-1.26 1.14-2.27 2.55-2.27 1.41 0 2.54 1.01 2.54 2.27z"/><path d="m450.54 145.73c0 1.25-1.15 2.27-2.56 2.27-1.4 0-2.54-1.02-2.54-2.27 0-1.26 1.14-2.28 2.54-2.28 1.41 0 2.56 1.02 2.56 2.28z"/></g><g stroke-width="7"><path d="m405.99 137.29c-3.02-6.35-14.8-8.82-20.78-7.63-5.6 1.12-8.38 1.79-14.24 6.33"/><path d="m430.41 135.9c3.02-6.34 14.81-8.82 20.77-7.63 5.61 1.12 8.4 1.8 14.24 6.33"/></g><g stroke-width="14"><path d="m484.75 133.89c.95-5.78 2.62-13.7 1.97-19.16-3.96-33.59-24.75-60.58-51.84-63.74-22.44-2.61-40.04.24-53.64 8.33 0 0-2.07 1.06-5.15 3.16 0 0-26.67 18.96-26.67 51.64l.64 20.48c1-2.08 2.87-4.79 5.11-7.69 6.72-8.7 16.79-19.08 16.79-19.08 5.42-3.98 48.12-18.06 60.771-26.89.029-.02.05-.04.079-.06 0 0 .23.12.66.39 2.79 1.72 14.15 9.52 29.16 30.25 2.79 3.84 13.68 12.4 16.13 22.42.05.18.09.36.12.54.19.86.311 1.74.36 2.62"/><path d="m437.74 81.82c-.63.001-2.98-.18-4.271-.55-.34-.1-.6-.21-.739-.33-.061-.04-.091-.09-.11-.14 3.88-3.78 6.939-9.94 6.939-16.19"/><path d="m417.9 356.83v.64.78l.1 325.75"/><path d="m192 554l36.33 17.85"/><path d="m644.18 562.75l-39.78 10.03"/><path d="m304 512l75.71-39.96"/><path d="m534 514l-68.55-37.48"/><path d="m242.78 380.31l62.43 23.26"/><path d="m591.28 385.59l-61.55 23.74-1.73.67"/><path d="m387.05 222.86l.001.05 26.84 135.34-46.34-60.58 12.9-29.67-40.98 14.33 21.62-52.26.16-.4"/><path d="m449.69 222.08l-26.85 135.39 46.34-60.58-12.9-29.66 40.99 14.32-21.55-52.09-.24-.57"/></g></g></svg>