<svg xmlns="http://www.w3.org/2000/svg" width="850.39" height="850.39" viewBox="0 0 850.394 850.394" overflow="visible" enable-background="new 0 0 850.394 850.394"><g fill="none" stroke="#231f20" stroke-width="14"><path d="M 325.875,371.167 380,476"/><path d="M 525.875,371.167 460,472"/></g><g fill="#ffeec8"><path d="m679.18 208.81c3.635 3.616 2.552 10.748.762 14.74-5.58 12.399-3.03 16.961-3.735 26.424-.413 5.287-9.757 16.355-16.989 9.251 1.01-6.223 1.919-13.859 1.836-21.22-.037-4.231-.413-8.371-1.275-12.1-.019-.037-.019-.074-.028-.11-1.716-8.113 4.645-20.88 15.255-19.03 1.806.312 3.173 1.046 4.174 2.038"/><path d="m531.78 219.27l.175.166c3.047 2.817 6.571 5.333 10.628 6.783 2.469.872 5.838 1.028 8.416.496 1.093-.229 2.433-.496 3.442-.964.854-.385 1.569-1.294 2.358-1.67 1.193-.551 2.524-.064 3.626-.744 1.294-.798.312-1.707-.432-3.02-1.221-2.166-3.103-4.02-5.305-5.378-2.497-1.551-5.415-2.487-8.27-2.551-2.479-.055-4.819.45-6.985 1.376-2.87 1.219-5.441 3.175-7.653 5.506m45.496 46.06c.037 3.451-1.597 14.06-2.817 17.255l.019.624c-5.131.083-9.656 3.846-14.878 5.333-1.23.349-2.506.569-3.837.587 4.02 1.368 7.729 3.396 11.932 4.406 5.976 1.441 12.749.312 18.807-.202 9.462-.826 17.998.166 25.21-6.305.284-.248.569-.514.854-.79-8.655.147-15.272-2.12-20.908-2.873l.074-.615c-2.983-5.846-4.718-15.501-4.801-19.917 2.065-.826 4.048-.642 7.489-.477.469.018.937.009 1.404-.046-3.047-1.404-7.141-2.286-9.646.872-.523.257-1.056.587-1.634 1.01-1.982 1.433-4.709 1.579-7.27 1.139m-3.56-.955c-7.554-3.965-5.489-13.482-4.378-18.971-.321.964-5.782 6.26-6.389 7.985-.872 2.414-.56 5.92.799 7.324 1.138 1.166 4.488 2.432 5.91 2.652 1.479.23 2.368.377 4.058 1.01m54.728-45.01c-2.212-2.322-4.772-4.277-7.645-5.507-2.157-.917-4.498-1.432-6.985-1.376-2.863.064-5.782.991-8.278 2.551-2.203 1.358-4.084 3.212-5.305 5.378-.744 1.313-1.717 2.221-.423 3.02 1.102.679 2.433.193 3.616.744.79.376 1.515 1.285 2.359 1.67 1.01.468 2.358.734 3.441.964 2.57.532 5.957.376 8.416-.505 4.066-1.441 7.582-3.956 10.638-6.783l.166-.156m2.525-69.17c.175.055.33.138.495.239 0 0 6.637 25.21 15.925 34.5 9.288 9.289 6.36 45.771 13.666 53.07.083 7.361-.826 14.997-1.836 21.22-1.175 7.223-2.496 12.528-2.597 13.281-.321 2.304-2.717 7.095-6.416 12.859-9.922 15.428-29.21 37.786-43.07 37.786-12.01 0-36.01 3.727-47.606-3.745-.597-.395-1.166-.808-1.698-1.257-6.709-5.672-18.394-24.18-21.07-29.05-2.882-5.241-11.216-13.556-13.391-28.553-.202-1.377-.358-2.809-.44-4.305-.486-8.214-2.589-16.447-3.689-24.469-.404-2.974-.68-5.92-.68-8.83 0-7.489 1.459-16.273 1.459-32.757l7.958-13.216c34.17-34.16 54.711-7.627 70.48-11.785 6.095-1.616 12.85-3.121 18.421-6.26 3.577-2.01 10.167-10.177 14.1-8.727m-57.22 155.31l18.402-1.487c-6.479-4.911-13.914-3-18.402 1.487"/></g><path d="m630.97 150.19c-3.929-1.45-10.519 6.719-14.1 8.729-5.571 3.139-12.326 4.644-18.421 6.26-15.768 4.158-36.31-22.376-70.48 11.785l-7.958 13.216c0 16.484-1.459 25.27-1.459 32.757 0 2.91.275 5.856.68 8.83-6.646-6.654-8.986-9.142-8.986-9.142-1.45-20.08-2.423-59.17 9.353-76.17 25.818-37.29 58.14-39.852 103.89-34.519 33.987 3.965 63.02 34.546 55.693 96.87-1-.991-2.368-1.726-4.176-2.038-10.61-1.854-16.971 10.913-15.255 19.03.001.037.001.073.028.11.862 3.726 1.238 7.865 1.275 12.1-7.306-7.297-4.378-43.78-13.666-53.07-9.288-9.288-15.925-34.5-15.925-34.5-.164-.102-.319-.185-.494-.24" fill="#9e5c26"/><path d="m607.13 323.15c13.859 0 33.15-22.358 43.07-37.786l.019.009c-.11 6.801 13.565 30.481 13.565 30.481 9.03 10.5 30.508 21.15 39.503 30.995l2.083 1.615c-27.92 25.983-65.36 41.88-106.51 41.88-29.682 0-57.44-8.27-81.07-22.633l3.772-.67c16.631-17.457 36.593-39.631 37.584-46.763l.377-.872c11.601 7.471 35.593 3.744 47.607 3.744" fill="#ffeec8"/><g fill="#231f20"><path d="m615.24 217.92c0 1.019-.762 1.845-1.688 1.845-.936 0-1.688-.826-1.688-1.845 0-1.019.753-1.835 1.688-1.835.926 0 1.688.817 1.688 1.835"/><path d="m615.24 217.92c0-1.019-.762-1.835-1.688-1.835-.936 0-1.688.817-1.688 1.835 0 1.019.753 1.845 1.688 1.845.926 0 1.688-.826 1.688-1.845m3.02 0c0 2.286-2.111 4.14-4.709 4.14-2.615 0-4.718-1.854-4.718-4.14 0-2.285 2.103-4.139 4.718-4.139 2.597 0 4.709 1.854 4.709 4.139"/></g><path d="m613.55 222.06c2.598 0 4.709-1.854 4.709-4.14 0-2.285-2.111-4.139-4.709-4.139-2.615 0-4.718 1.854-4.718 4.139 0 2.286 2.102 4.14 4.718 4.14m-8.02-7.03c2.496-1.56 5.415-2.487 8.278-2.551 2.487-.055 4.828.459 6.985 1.376l-.275.688c.835 1.166.688 1.569.688 3.093 0 4.084-3.46 7.388-7.728 7.388-4.277 0-7.737-3.304-7.737-7.388 0-1.129-.303-1.028.175-1.983l-.386-.623" fill="#9e5c26"/><g fill="#fff"><path d="m613.48 225.02c4.268 0 7.728-3.304 7.728-7.388 0-1.524.147-1.928-.688-3.093l.275-.688c2.872 1.23 5.433 3.185 7.645 5.507l-.165.156c-3.056 2.827-6.571 5.342-10.638 6.783-2.459.881-5.846 1.037-8.416.505-1.083-.229-2.432-.496-3.441-.964-.845-.386-1.569-1.294-2.359-1.67-1.184-.551-2.515-.064-3.616-.744-1.294-.798-.321-1.707.423-3.02 1.221-2.166 3.102-4.02 5.305-5.378l.386.624c-.478.955-.175.854-.175 1.983-.0001 4.083 3.459 7.387 7.736 7.387"/><path d="m592.15 304.02l-18.402 1.487c4.488-4.488 11.923-6.398 18.402-1.487"/></g><path d="m611.71 287.02c-14.776 1.23-36.667 2.221-51.902 2.221l-.211-.707c5.222-1.487 9.747-5.25 14.878-5.333 1.468-.037 2.992.239 4.589.955 4.396 1.964 6.901-1.414 11.748-.899.275.027.56.064.844.101 5.636.752 12.253 3.02 20.908 2.873-.285.275-.57.541-.854.789" fill="#ee947d"/><path d="m574.46 282.58c1.221-3.194 2.854-13.804 2.817-17.255 2.561.44 5.287.294 7.27-1.138.578-.422 1.11-.752 1.634-1.01.257-.138.505-.257.752-.349.083 4.415 1.817 14.07 4.801 19.917l-.074.615c-.284-.037-.568-.074-.844-.101-4.847-.514-7.352 2.864-11.748.899-1.597-.716-3.121-.991-4.589-.955l-.019-.624" fill="#ffeec8"/><path d="m586.5 293.33c-6.06.514-12.831 1.643-18.807.202-4.203-1.01-7.911-3.038-11.932-4.406 1.331-.018 2.606-.238 3.837-.587l.211.707c15.235 0 37.13-.991 51.902-2.221-7.213 6.471-15.749 5.479-25.21 6.305" fill="#ee947d"/><path d="m557.83 318.14c.532.45 1.102.863 1.698 1.257l-.377.872c-.991 7.131-20.953 29.31-37.584 46.763l-3.772.67c-45.13-27.415-75.28-77.04-75.28-133.71 0-86.36 70-156.35 156.35-156.35 86.35 0 156.35 69.993 156.35 156.35 0 45.2-19.18 85.92-49.837 114.46l-2.083-1.615c-8.995-9.839-30.472-20.495-39.503-30.995 0 0-13.676-23.68-13.565-30.481l-.019-.009c3.699-5.764 6.095-10.555 6.416-12.859.101-.752 1.422-6.06 2.597-13.281 7.232 7.104 16.576-3.965 16.989-9.251.706-9.463-1.845-14.02 3.735-26.424 1.79-3.993 2.873-11.124-.762-14.74 7.324-62.32-21.706-92.9-55.693-96.87-45.744-5.333-78.07-2.772-103.89 34.519-11.775 16.998-10.803 56.09-9.353 76.17 3.488 10.702.487 18.448 1.8 25.993.688 3.919 5.02 11.445 11.316 11.922 2.175 14.997 10.509 23.313 13.391 28.553 2.68 4.875 14.364 23.378 21.07 29.05" fill="#ffffc2"/><g fill="#231f20"><path d="m544.98 217.83c0-1.019.753-1.835 1.68-1.835.937 0 1.689.817 1.689 1.835 0 1.019-.753 1.845-1.689 1.845-.927-.0001-1.68-.826-1.68-1.845"/><path d="m546.66 215.99c-.927 0-1.68.817-1.68 1.835 0 1.019.753 1.845 1.68 1.845.937 0 1.689-.826 1.689-1.845.0001-1.018-.752-1.835-1.689-1.835m-4.699 1.836c0-2.285 2.103-4.139 4.709-4.139s4.708 1.854 4.708 4.139c0 2.286-2.102 4.14-4.708 4.14s-4.709-1.855-4.709-4.14"/></g><path d="m546.67 213.69c-2.606 0-4.709 1.854-4.709 4.139 0 2.286 2.103 4.14 4.709 4.14s4.708-1.854 4.708-4.14c0-2.285-2.102-4.139-4.708-4.139m-7.242.074c2.166-.927 4.507-1.432 6.985-1.376 2.854.064 5.772 1 8.27 2.551l-.386.624c.478.955.174.854.174 1.983 0 4.084-3.46 7.388-7.728 7.388s-7.728-3.304-7.728-7.388c0-1.524-.147-1.918.688-3.093l-.275-.689" fill="#9e5c26"/><path d="m551 226.71c-2.578.532-5.947.376-8.416-.496-4.057-1.45-7.581-3.965-10.628-6.783l-.175-.166c2.212-2.331 4.782-4.286 7.654-5.507l.275.688c-.835 1.175-.688 1.569-.688 3.093 0 4.084 3.46 7.388 7.728 7.388s7.728-3.304 7.728-7.388c0-1.129.304-1.028-.174-1.983l.386-.624c2.202 1.358 4.084 3.212 5.305 5.378.743 1.313 1.726 2.221.432 3.02-1.102.679-2.433.193-3.626.744-.789.376-1.505 1.285-2.358 1.67-1.01.471-2.35.737-3.443.966" fill="#fff"/><path d="m522.92 256.24c.082 1.496.238 2.928.44 4.305-6.297-.478-10.629-8-11.316-11.922-1.313-7.544 1.688-15.291-1.8-25.993 0 0 2.341 2.487 8.986 9.142 1.101 8.02 3.204 16.254 3.69 24.468" fill="#ffeec8"/><path d="m409.25 234c0 40.476-15.382 77.36-40.613 105.13l-1.267-1.459-14.538-22.17c2.175-7.407-.266-19.669-5.516-24.9-10.573-10.573-17.18-44.28-18.18-53.11-1.744-15.401 4.341-32.463 4.341-47.91 0-44.06-29.05-78.83-60.833-82.54-42.798-4.993-70.58 6.984-87.64 34.757-10.114 16.484-17.08 45.02-15.741 63.807.523 7.288 6.287 57.15-.156 73.66-1.67 4.277-4.057 14.01-6.453 21.981-9.16 30.572 16.02 33.922 19.559 48.911l-16.76 11.381-.973 1.422c-41.02-28.18-67.926-75.42-67.926-128.95 0-86.36 70-156.35 156.35-156.35s156.35 69.993 156.35 156.35" fill="#ffffc2"/><g fill="#ffeec8"><path d="m293.12 266.6c4.543-3.928 9.417-7.985 11.886-13.12l.422.211c-1.523 25.497 11.07 39.13 11.07 39.13 16.374 10.628 28.02 14.786 36.34 22.679l14.538 22.17 1.267 1.459c-28.608 31.462-69.864 51.21-115.74 51.21-32.812 0-63.27-10.114-88.42-27.388l.973-1.422 16.76-11.381c4.433-2.607 33.757-26.461 38.37-30.27 6.342-5.25 10.693-14.915 10.693-24.341l.697-1.606c9.142 3.689 20.513.661 29.875-.478 15-1.833 20.823-17.794 31.27-26.852"/><path d="m185.77 208.71c-.248-10.325 4.791-21.17 13.04-27.24 6.351-4.653 40.925-21.15 55.711-31.518.22.468.578.771 1.083.909 5.351 5.69 32.29 34.24 46.845 48.8 13.575 13.574 4.332 46.882 4.04 48.938-.239 1.744-.762 3.359-1.487 4.883-2.469 5.14-7.343 9.197-11.886 13.13-10.445 9.06-16.264 25.02-31.27 26.855-9.362 1.138-20.733 4.167-29.875.478-1.872-.753-3.653-1.79-5.305-3.185-6.04-5.112-13.602-9.839-18.558-16.08-3.111-3.928-18.879-22.321-18.879-38.28-.0001-14.539-3.213-18.02-3.46-27.682m78.27-4.947c-2.386.055-4.818.835-6.893 2.138-1.836 1.129-3.396 2.662-4.415 4.461-.606 1.092-1.423 1.854-.349 2.524.918.569 2.028.156 3 .615.661.312 1.267 1.074 1.973 1.395.835.395 1.955.615 2.864.799 2.138.44 4.956.312 7-.422 3.387-1.202 6.314-3.286 8.857-5.645l.128-.119c-1.827-1.937-3.965-3.57-6.36-4.58-1.798-.781-3.744-1.212-5.809-1.166m-53.51 0c-2.065-.046-4.01.385-5.81 1.166-2.396 1.01-4.525 2.643-6.351 4.58l.128.119c2.533 2.359 5.461 4.442 8.848 5.645 2.047.734 4.855.863 7 .422.909-.184 2.028-.404 2.864-.799.707-.321 1.313-1.083 1.973-1.395.982-.459 2.093-.046 3.01-.615 1.074-.67.257-1.432-.358-2.524-1.019-1.799-2.579-3.341-4.415-4.47-2.073-1.294-4.506-2.074-6.892-2.129m50.17 52.01c-3.745.386-17.842-2.863-19.871 2.24-1.257.514-3.313-.826-4.708-1.147-2.634-.615-5.7-.037-8.26.707-4.112 1.193-4.313 2.817-3.02 4.534 1.349 1.771 4.305 3.625 6.205 5.195 5.112 4.231 11.766 4.764 17.989 2.01 4.58-2.028 7.278-6.452 9.857-10.665.596-.983 1.193-1.947 1.808-2.874"/></g><g fill="#231f20"><path d="m262.43 208.29c0-.844.624-1.533 1.404-1.533.771 0 1.404.688 1.404 1.533 0 .854-.633 1.542-1.404 1.542-.78-.0001-1.404-.689-1.404-1.542"/><path d="m263.83 206.76c-.78 0-1.404.688-1.404 1.533 0 .854.624 1.542 1.404 1.542.771 0 1.404-.688 1.404-1.542 0-.845-.633-1.533-1.404-1.533m-.001 4.984c-2.166 0-3.91-1.542-3.91-3.451 0-1.9 1.744-3.441 3.91-3.441s3.919 1.542 3.919 3.441c0 1.909-1.753 3.451-3.919 3.451"/></g><path d="m257.15 205.9c2.074-1.303 4.506-2.083 6.893-2.138 2.065-.046 4.01.385 5.81 1.166l-.22.551c.688.982.569 1.313.569 2.588 0 3.387-2.882 6.149-6.434 6.149-3.552 0-6.434-2.763-6.434-6.149 0-.945-.257-.862.138-1.652l-.322-.515m6.672-1.046c-2.166 0-3.91 1.542-3.91 3.441 0 1.909 1.744 3.451 3.91 3.451s3.919-1.542 3.919-3.451c0-1.899-1.753-3.441-3.919-3.441" fill="#6ebe44"/><path d="m267.23 215.27c-2.047.734-4.865.863-7 .422-.909-.184-2.028-.404-2.864-.799-.707-.321-1.313-1.083-1.973-1.395-.973-.459-2.083-.046-3-.615-1.074-.67-.257-1.432.349-2.524 1.019-1.799 2.579-3.332 4.415-4.461l.321.514c-.395.79-.138.707-.138 1.652 0 3.387 2.882 6.149 6.434 6.149 3.552 0 6.434-2.763 6.434-6.149 0-1.275.119-1.606-.569-2.588l.22-.551c2.396 1.01 4.534 2.643 6.36 4.58l-.128.119c-2.543 2.36-5.471 4.444-8.857 5.646" fill="#fff"/><g fill="#ee947d"><path d="m224.85 262.09c5.04 1.478 12.537.642 17.604.238 5.085-.404 9.251-.44 16.438-3.689-2.579 4.213-5.277 8.637-9.857 10.665-6.223 2.753-12.877 2.221-17.989-2.01-1.9-1.569-4.855-3.423-6.205-5.195l.009-.009"/><path d="m224.84 262.1c-1.294-1.716-1.092-3.341 3.02-4.534 2.561-.744 5.626-1.322 8.26-.707 1.395.321 3.451 1.662 4.708 1.147 2.028-5.103 16.13-1.854 19.871-2.24-.615.927-1.211 1.891-1.808 2.873-7.187 3.249-11.353 3.286-16.438 3.689-5.066.404-12.565 1.239-17.604-.238l-.009.001"/></g><g fill="#231f20"><path d="m210.75 206.76c.78 0 1.404.688 1.404 1.533 0 .854-.625 1.533-1.404 1.533-.78 0-1.404-.679-1.404-1.533 0-.845.624-1.533 1.404-1.533"/><path d="m210.75 206.76c-.78 0-1.404.688-1.404 1.533 0 .854.624 1.533 1.404 1.533.78 0 1.404-.679 1.404-1.533.0001-.845-.624-1.533-1.404-1.533m-3.919 1.533c0-1.9 1.744-3.441 3.919-3.441 2.166 0 3.919 1.542 3.919 3.441 0 1.909-1.753 3.451-3.919 3.451-2.175 0-3.919-1.542-3.919-3.451"/></g><path d="m204.72 204.92c1.799-.78 3.745-1.211 5.81-1.166 2.386.055 4.818.835 6.893 2.129l-.321.523c.395.79.147.707.147 1.652 0 3.387-2.891 6.149-6.434 6.149-3.561 0-6.443-2.763-6.443-6.149 0-1.275-.119-1.606.569-2.588l-.221-.55m6.03-.073c-2.175 0-3.919 1.542-3.919 3.441 0 1.909 1.744 3.451 3.919 3.451 2.166 0 3.919-1.542 3.919-3.451 0-1.899-1.753-3.441-3.919-3.441" fill="#6ebe44"/><path d="m204.37 208.06c0 3.387 2.882 6.149 6.443 6.149 3.543 0 6.434-2.763 6.434-6.149 0-.945.248-.862-.147-1.652l.321-.523c1.835 1.129 3.396 2.67 4.415 4.47.615 1.092 1.432 1.854.358 2.524-.917.569-2.028.156-3.01.615-.661.312-1.267 1.074-1.973 1.395-.835.395-1.955.615-2.864.799-2.147.44-4.956.312-7-.422-3.387-1.202-6.314-3.286-8.848-5.645l-.128-.119c1.826-1.937 3.956-3.57 6.351-4.58l.22.551c-.689.981-.569 1.312-.569 2.587" fill="#fff"/><path d="m254.52 149.95c-14.786 10.371-49.36 26.864-55.711 31.518-8.251 6.067-13.29 16.916-13.04 27.24.248 9.665 3.46 13.14 3.46 27.682 0 15.96 15.768 34.35 18.879 38.28 4.957 6.241 12.519 10.968 18.558 16.08 1.652 1.395 3.433 2.432 5.305 3.185l-.697 1.606c0 9.426-4.351 19.09-10.693 24.341-4.617 3.809-33.941 27.663-38.37 30.27-3.543-14.988-28.719-18.338-19.559-48.911 2.396-7.976 4.782-17.705 6.453-21.981 6.443-16.512.679-66.38.156-73.66-1.34-18.788 5.626-47.32 15.741-63.807 17.06-27.773 44.844-39.75 87.64-34.757 31.784 3.708 60.833 38.475 60.833 82.54 0 15.447-6.085 32.509-4.341 47.91 1 8.839 7.608 42.541 18.18 53.11 5.25 5.231 7.691 17.494 5.516 24.9-8.315-7.894-19.962-12.05-36.34-22.679 0 0-12.592-13.63-11.07-39.13l-.422-.211c.725-1.523 1.248-3.139 1.487-4.883.293-2.056 9.536-35.36-4.04-48.938-14.557-14.557-41.494-43.11-46.845-48.8-.615-.652-.945-1-.945-1-.047.025-.093.061-.139.089" fill="#fbee34"/><g fill="none"><g stroke="#231f20"><g stroke-width="6.04"><path d="m247.1 200.12c5.443-9.06 18.668-10.5 26.25-7.544 4.066 1.579 6.526 3.46 7.6 4.534"/><path d="m218.54 196.78c-7.581-6.755-22.725-5.314-28.406 2.377"/><path d="m227.53 202.1c7.894 5.902 3.717 25.91 1.726 31.876-.633 1.909-3.359 5.277-1.441 7.26.927.955 2.111.44 3.268.615 1.211.184 1.937.313 3.313.826 2.68.991 4.635 1.588 7.04-.156 2.606-1.891 2.404-3.231 6.259-3.038 3.24.147 6.819 1.056 6.664-3.928-.12-3.433-2.699-3.387-4.543-5.81"/></g><g stroke-width="4.532"><path d="m240.61 258.89c.037-.321.11-.615.22-.881 2.028-5.103 16.13-1.854 19.871-2.24-.615.927-1.211 1.891-1.808 2.873-2.579 4.213-5.277 8.637-9.857 10.665-6.223 2.753-12.877 2.221-17.989-2.01-1.9-1.569-4.855-3.423-6.205-5.195-1.294-1.716-1.092-3.341 3.02-4.534 2.561-.744 5.626-1.322 8.26-.707 1.395.321 3.451 1.662 4.708 1.147.211-.092.395-.229.56-.432"/><path d="m224.85 262.09c5.04 1.478 12.537.642 17.604.238 5.085-.404 9.251-.44 16.438-3.689"/></g><g stroke-linecap="square" stroke-miterlimit="10"><path d="m277.4 210.82c-.376-.459-.771-.899-1.175-1.321h-.009c-1.827-1.937-3.965-3.57-6.36-4.58-1.799-.78-3.745-1.211-5.81-1.166-2.386.055-4.818.835-6.893 2.138-1.836 1.129-3.396 2.662-4.415 4.461-.606 1.092-1.423 1.854-.349 2.524.918.569 2.028.156 3 .615.661.312 1.267 1.074 1.973 1.395.835.395 1.955.615 2.864.799 2.138.44 4.956.312 7-.422 3.387-1.202 6.314-3.286 8.857-5.645" stroke-width="3.02"/><path d="m257.47 206.41c-.395.79-.138.707-.138 1.652 0 3.387 2.882 6.149 6.434 6.149 3.552 0 6.434-2.763 6.434-6.149 0-1.275.119-1.606-.569-2.588" stroke-width="1.511"/></g><g stroke-width="1.511"><path d="m259.91 208.29c0 1.909 1.744 3.451 3.91 3.451s3.919-1.542 3.919-3.451c0-1.9-1.753-3.441-3.919-3.441s-3.91 1.541-3.91 3.441z"/><path d="m262.43 208.29c0 .854.624 1.542 1.404 1.542.771 0 1.404-.688 1.404-1.542 0-.844-.633-1.533-1.404-1.533-.78 0-1.404.688-1.404 1.533z"/></g><g stroke-linecap="square" stroke-miterlimit="10"><path d="m197.19 210.82c.376-.459.771-.899 1.175-1.321h.009c1.826-1.937 3.956-3.57 6.351-4.58 1.799-.78 3.745-1.211 5.81-1.166 2.386.055 4.818.835 6.893 2.129 1.835 1.129 3.396 2.67 4.415 4.47.615 1.092 1.432 1.854.358 2.524-.917.569-2.028.156-3.01.615-.661.312-1.267 1.074-1.973 1.395-.835.395-1.955.615-2.864.799-2.147.44-4.956.312-7-.422-3.387-1.202-6.314-3.286-8.848-5.645" stroke-width="3.02"/><path d="m217.1 206.41c.395.79.147.707.147 1.652 0 3.387-2.891 6.149-6.434 6.149-3.561 0-6.443-2.763-6.443-6.149 0-1.275-.119-1.606.569-2.588" stroke-width="1.511"/></g><g stroke-width="1.511"><path d="m214.67 208.29c0 1.909-1.753 3.451-3.919 3.451-2.175 0-3.919-1.542-3.919-3.451 0-1.9 1.744-3.441 3.919-3.441 2.166-.0001 3.919 1.541 3.919 3.441z"/><path d="m212.16 208.29c0 .854-.625 1.533-1.404 1.533-.78 0-1.404-.679-1.404-1.533 0-.844.624-1.533 1.404-1.533.779 0 1.404.688 1.404 1.533z"/></g><g stroke-width="6.425"><path d="m255.61 150.85c5.351 5.69 32.29 34.24 46.845 48.8 13.575 13.574 4.332 46.882 4.04 48.938-.239 1.744-.762 3.359-1.487 4.883-2.469 5.14-7.343 9.197-11.886 13.13-10.445 9.06-16.264 25.02-31.27 26.855-9.362 1.138-20.733 4.167-29.875.478-1.872-.753-3.653-1.79-5.305-3.185-6.04-5.112-13.602-9.839-18.558-16.08-3.111-3.928-18.879-22.321-18.879-38.28 0-14.539-3.212-18.02-3.46-27.682-.248-10.325 4.791-21.17 13.04-27.24 6.351-4.653 40.925-21.15 55.711-31.518.046-.028.092-.064.138-.092 0 0 .33.349.945 1z"/><path d="m305.43 253.69c-1.523 25.497 11.07 39.13 11.07 39.13 16.374 10.628 28.02 14.786 36.34 22.679 2.175-7.407-.266-19.669-5.516-24.9-10.573-10.573-17.18-44.28-18.18-53.11-1.744-15.401 4.341-32.463 4.341-47.91 0-44.06-29.05-78.83-60.833-82.54-42.798-4.993-70.58 6.984-87.64 34.757-10.114 16.484-17.08 45.02-15.741 63.807.523 7.288 6.287 57.15-.156 73.66-1.67 4.277-4.057 14.01-6.453 21.981-9.16 30.572 16.02 33.922 19.559 48.911 4.433-2.607 33.757-26.461 38.37-30.27 6.342-5.25 10.693-14.915 10.693-24.341"/><path d="m256.38 150.96c-.285 0-.542-.027-.771-.101-.505-.138-.863-.441-1.083-.909-.027-.055-.046-.12-.073-.184 4.543-4.442 6.773-11.455 8.141-17.42"/></g><g stroke-width="6.04"><path d="m564.99 207.91c-3.487-7.343-17.15-10.215-24.07-8.83-6.488 1.294-9.71 2.065-16.502 7.324"/><path d="m592.12 206.62c3.497-7.342 17.14-10.215 24.06-8.829 6.508 1.285 9.729 2.065 16.503 7.324"/></g><g stroke-linecap="square" stroke-miterlimit="10"><path d="m530.37 220.87c.45-.551.927-1.083 1.404-1.597 2.212-2.331 4.782-4.286 7.654-5.507 2.166-.927 4.507-1.432 6.985-1.376 2.854.064 5.772 1 8.27 2.551 2.202 1.358 4.084 3.212 5.305 5.378.743 1.313 1.726 2.221.432 3.02-1.102.679-2.433.193-3.626.744-.789.376-1.505 1.285-2.358 1.67-1.01.468-2.35.734-3.442.964-2.578.532-5.947.376-8.416-.496-4.057-1.45-7.581-3.965-10.628-6.783" stroke-width="4.589"/><path d="m554.3 215.56c.478.955.174.854.174 1.983 0 4.084-3.46 7.388-7.728 7.388s-7.728-3.304-7.728-7.388c0-1.524-.147-1.918.688-3.093" stroke-width="3.02"/><path d="m629.85 220.96c-.449-.551-.927-1.083-1.404-1.597-2.212-2.322-4.772-4.277-7.645-5.507-2.157-.917-4.498-1.432-6.985-1.376-2.863.064-5.782.991-8.278 2.551-2.203 1.358-4.084 3.212-5.305 5.378-.744 1.313-1.717 2.221-.423 3.02 1.102.679 2.433.193 3.616.744.79.376 1.515 1.285 2.359 1.67 1.01.468 2.358.734 3.441.964 2.57.532 5.957.376 8.416-.505 4.066-1.441 7.582-3.956 10.638-6.783" stroke-width="4.589"/><path d="m605.92 215.65c-.478.955-.175.854-.175 1.983 0 4.084 3.46 7.388 7.737 7.388 4.268 0 7.728-3.304 7.728-7.388 0-1.524.147-1.928-.688-3.093" stroke-width="3.02"/></g><g stroke-width="6.425"><path d="m679.17 208.88c0-.027.009-.046.009-.073 7.324-62.32-21.706-92.9-55.693-96.87-45.744-5.333-78.07-2.772-103.89 34.519-11.775 16.998-10.803 56.09-9.353 76.17 0 0 2.341 2.487 8.986 9.142"/><path d="m659.75 225.79c-.293-1.294-.651-2.533-1.083-3.708"/><path d="m661.05 238c-7.306-7.297-4.378-43.78-13.666-53.07-9.288-9.288-15.925-34.5-15.925-34.5-.165-.101-.32-.184-.495-.239-3.929-1.45-10.519 6.719-14.1 8.729-5.571 3.139-12.326 4.644-18.421 6.26-15.768 4.158-36.31-22.376-70.48 11.785l-7.958 13.216c0 16.484-1.459 25.27-1.459 32.757 0 2.91.275 5.856.68 8.83 1.101 8.02 3.203 16.254 3.689 24.469.082 1.496.238 2.928.44 4.305 2.175 14.997 10.509 23.313 13.391 28.553 2.68 4.874 14.364 23.376 21.07 29.05.532.45 1.102.863 1.698 1.257 11.601 7.471 35.593 3.745 47.606 3.745 13.859 0 33.15-22.358 43.07-37.786 3.699-5.764 6.095-10.555 6.416-12.859.101-.752 1.422-6.06 2.597-13.281 1.012-6.224 1.921-13.861 1.838-21.22-.037-4.231-.413-8.371-1.275-12.1"/><path d="m630.14 152.42c.257-.725.532-1.469.826-2.23 3.02-7.847 7.994-17.04 13.11-22.725"/></g><g stroke-width="4.532"><path d="m555.76 289.12c1.331-.018 2.606-.238 3.837-.587 5.222-1.487 9.747-5.25 14.878-5.333 1.468-.037 2.992.239 4.589.955 4.396 1.964 6.901-1.414 11.748-.899.275.027.56.064.844.101 5.636.752 12.253 3.02 20.908 2.873.937-.018 1.9-.055 2.882-.138"/><path d="m552.96 288.32c.954.22 1.891.496 2.799.808 4.02 1.368 7.729 3.396 11.932 4.406 5.976 1.441 12.749.312 18.807-.202 9.462-.826 17.998.166 25.21-6.305.284-.248.569-.514.854-.79.221-.22.44-.45.661-.688"/><path d="m559.81 289.24c15.235 0 37.13-.991 51.902-2.221"/></g><g stroke-width="6.04"><path d="m566.57 211.24c9.674 7.232 5.204 26.855 2.763 34.16-.321.964-5.782 6.26-6.389 7.985-.872 2.414-.56 5.92.799 7.324 1.138 1.166 4.488 2.432 5.91 2.652 1.479.229 2.368.376 4.058 1.01 1.073.404 2.294.752 3.561.955 2.561.44 5.287.294 7.27-1.138.578-.422 1.11-.752 1.634-1.01.257-.138.505-.257.752-.349 2.065-.826 4.048-.642 7.489-.477.469.018.937.009 1.404-.046 3.524-.44 6.93-3.157 6.756-8.536-.138-4.213-3.295-2.166-5.553-5.131"/><path d="m577.27 265.31v.009c.037 3.451-1.597 14.06-2.817 17.255"/><path d="m586.92 262.49c0 .11 0 .22.009.339.083 4.415 1.817 14.07 4.801 19.917"/><path d="m569.43 244.94c-.028.147-.064.303-.092.459-1.111 5.489-3.176 15.01 4.378 18.971"/></g><g stroke-width="6.425"><path d="m659.78 225.93c0-.009 0-.019 0-.027-.019-.037-.019-.074-.028-.11-1.716-8.113 4.645-20.88 15.255-19.03 1.808.312 3.175 1.046 4.176 2.038 3.635 3.616 2.552 10.748.762 14.74-5.58 12.399-3.03 16.961-3.735 26.424-.413 5.287-9.757 16.355-16.989 9.251"/><path d="m510.25 222.63c3.488 10.702.487 18.448 1.8 25.993.688 3.919 5.02 11.445 11.316 11.922.202.009.413.018.624.018"/><path d="m650.22 285.37c-.11 6.801 13.565 30.481 13.565 30.481 9.03 10.5 30.508 21.15 39.503 30.995"/><path d="m559.15 320.27c-.991 7.131-20.953 29.31-37.584 46.763"/></g><g stroke-width="6.04"><path d="m585.52 264.15c.202-.358.422-.679.661-.973 2.505-3.158 6.599-2.276 9.646-.872.212.092.423.193.624.293"/><path d="m573.75 305.51c4.488-4.488 11.923-6.397 18.402-1.487"/></g><g stroke-width="6.425"><path d="m182.21 350.15l-16.759 11.381"/><path d="m352.83 315.49l14.538 22.17"/></g></g><g stroke-dasharray="0 28" stroke="#394ea1" stroke-linejoin="round" stroke-linecap="round" stroke-width="26"><path d="m164.48 362.95c-41.03-28.18-67.928-75.42-67.928-128.95 0-86.36 70-156.35 156.35-156.35s156.35 69.993 156.35 156.35c0 40.476-15.382 77.36-40.613 105.13-28.608 31.462-69.864 51.21-115.74 51.21-32.813-.0001-63.28-10.115-88.42-27.388z"/><path d="m517.79 367.71c-45.13-27.415-75.28-77.04-75.28-133.71 0-86.36 70-156.35 156.35-156.35 86.35 0 156.35 69.993 156.35 156.35 0 45.2-19.18 85.92-49.837 114.46-27.92 25.983-65.36 41.88-106.51 41.88-29.682 0-57.44-8.269-81.07-22.633z"/></g></g><path d="m512.11 601.82c3.956 12.563 4.684 28.06 3.317 32.979-.815 2.887-4.571 6.991-8.108 6.56-3.909-.42-4.791-9.652-6.701-12.592-2.969.609-1.443 4.944-3.638 4.944-1.898-1.898-2.537-7.115-2.537-12.58 0-6.44.888-13.219 1.633-15.277l16.03-4.03" fill="#ffeec8"/><path d="m461.37 576.72c1.142 3.059 4.081 11.652 6.01 23.705l-1.1.178-92.26.379c1.674-15.08 4.536-24.23 4.536-24.23l-3.063-39.09-30.974 67.827-16.05-4.04c0 0 10.11-34.801 14.224-51.4 5.956-24.08 25.651-63.793 25.651-63.793 5.01-5.02 13.467-10.912 20.659-15.562 7.01-4.519 12.822-7.854 13.12-8.03 4.395 4.607 9.99 7.369 16.08 7.369 7.724 0 14.65-4.436 19.34-11.444l1.496.438c0 0 5.79 4.395 12.834 10.04 7.05 5.643 15.343 12.545 20.37 17.56 0 0 19.683 39.71 25.645 63.788 4.093 16.596 14.213 51.4 14.213 51.4l-16.03 4.03-30.998-67.814-3.702 38.673" fill="#abd153"/><path d="m460.35 768.51l.023-.012c.019 5.43 10.534 10.232 18.749 14.917 5.116 2.921 8.04 7.979 6.518 13.39-1.266 4.495-11.16 7-16.16 4.135-8.676-4.957-3.034-3.259-9.492-5.767-14.08-5.501-17.389-3.307-18.577-17.951l18.937-8.712" fill="#231f20"/><path d="m467.38 600.42c1.053 6.56 1.804 14.14 1.804 22.41 0 24.835-8.02 134.69-8.83 145.68l-18.938 8.712c-.071-.84-.137-1.732-.189-2.69l-1.774-11.889h-.018l-14.603-128.63-7.411-.029-14.922 129.16.024.006-1.266 10.05c-.189 3.146-.432 5.637-.792 7.647l-.455-.083-17.519-13.668c0 .147-.012.302-.03.449-1.07-13.313-9.623-120.55-9.623-145.07 0-8.03.491-15.277 1.183-21.511l92.26-.379 1.099-.177" fill="#c8c8c8"/><path d="m402.13 462.67c-5.784-6.068-9.481-15.354-9.481-25.758 0-18.287 11.438-33.13 25.563-33.13 14.13 0 25.574 14.845 25.574 33.13 0 8.292-2.354 15.869-6.233 21.683-4.69 7.01-11.616 11.444-19.34 11.444-6.093 0-11.688-2.762-16.08-7.369" fill="#ffeec8"/><path d="m382.46 767.56c.018-.147.03-.302.03-.449l17.519 13.668.455.083c-1.65 9.256-5.754 8.228-17.998 13.01-6.453 2.49-.804.811-9.481 5.767-5 2.862-14.887.331-16.17-4.146-1.526-5.4 1.408-10.463 6.529-13.379 7.997-4.567 18.525-9.293 19.12-14.55" fill="#231f20"/><path d="m344.52 605.49c.739 2.052 1.626 8.824 1.626 15.265 0 5.465-.639 10.688-2.537 12.58-2.177 0-.674-4.329-3.637-4.938-1.893 2.945-2.792 12.189-6.707 12.604-3.531.426-7.299-3.679-8.103-6.564-1.384-4.927-.639-20.405 3.306-32.985l16.05 4.04" fill="#ffeec8"/><g fill="none" stroke="#231f20"><g stroke-width="7"><path d="m402.13 462.67c-5.784-6.068-9.481-15.354-9.481-25.758 0-18.287 11.438-33.13 25.563-33.13 14.13 0 25.574 14.845 25.574 33.13 0 8.292-2.354 15.869-6.233 21.683-4.69 7.01-11.616 11.444-19.34 11.444-6.093 0-11.688-2.762-16.08-7.369z"/><path d="m328.47 601.45c0 0 10.11-34.801 14.224-51.4 5.956-24.08 25.651-63.793 25.651-63.793 5.01-5.02 13.467-10.912 20.659-15.562 7.01-4.519 12.822-7.854 13.12-8.03.006-.006.012-.006.012-.006"/><path d="m382.57 768.91c0 0-.036-.467-.106-1.354-1.07-13.313-9.623-120.55-9.623-145.07 0-8.03.491-15.277 1.183-21.511 1.674-15.08 4.536-24.23 4.536-24.23l-3.063-39.09-30.974 67.827c.739 2.052 1.626 8.824 1.626 15.265 0 5.465-.639 10.688-2.537 12.58-2.177 0-.674-4.329-3.637-4.938-1.893 2.945-2.792 12.189-6.707 12.604-3.531.426-7.299-3.679-8.103-6.564-1.384-4.927-.639-20.405 3.306-32.985"/><path d="m512.11 601.82c0 0-10.12-34.807-14.213-51.4-5.962-24.08-25.645-63.788-25.645-63.788-5.03-5.01-13.325-11.917-20.37-17.56-7.04-5.648-12.834-10.04-12.834-10.04"/><path d="m461.24 578.12l.136-1.408 3.702-38.674 30.998 67.814c-.745 2.059-1.633 8.837-1.633 15.277 0 5.465.639 10.682 2.537 12.58 2.194 0 .669-4.335 3.638-4.944 1.91 2.939 2.792 12.172 6.701 12.592 3.537.432 7.293-3.673 8.108-6.56 1.366-4.921.639-20.416-3.317-32.979"/><path d="m460.29 769.4c0 0 .023-.308.064-.888.811-10.994 8.83-120.85 8.83-145.69 0-8.269-.751-15.851-1.804-22.41-1.928-12.05-4.867-20.646-6.01-23.705-.296-.804-.474-1.224-.474-1.224"/><path d="m402.57 762.78l-.047.372-1.266 10.05c-.189 3.146-.432 5.637-.792 7.647-1.65 9.256-5.754 8.228-17.998 13.01-6.453 2.49-.804.811-9.481 5.767-5 2.862-14.887.331-16.17-4.146-1.526-5.4 1.408-10.463 6.529-13.379 7.997-4.566 18.524-9.292 19.12-14.55.018-.147.03-.302.03-.449"/><path d="m439.45 762.65l1.774 11.889c.053.958.118 1.851.189 2.69 1.188 14.645 4.501 12.45 18.577 17.951 6.458 2.508.816.81 9.492 5.767 4.998 2.868 14.893.36 16.16-4.135 1.521-5.411-1.401-10.469-6.518-13.39-8.215-4.685-18.73-9.487-18.749-14.917"/><path d="m439.53 763.48l-.09-.83-14.61-128.64-7.41-.02-14.92 129.16"/><path d="m373.99 600.98h.03l92.26-.38"/></g><g stroke-width="4.14"><path d="m328.47 601.45l16.05 4.04"/><path d="m496.07 605.86l16.03-4.03"/><path d="m382.49 767.11l17.519 13.668"/><path d="m441.41 777.23h.001l18.93-8.72.03-.001"/></g></g></svg>