<svg xmlns="http://www.w3.org/2000/svg" width="850.39" height="850.39" viewBox="0 0 850.394 850.394" overflow="visible" enable-background="new 0 0 850.394 850.394"><g fill="#fff"><path d="m532.15 159.51v456.49h-368.14v-52-404.49h323.21z"/><path d="m487.22 107.51v52h-323.21v404.49h-44.93v-47.11-409.38h322.67z"/><path d="m441.75 60.4v47.11h-322.67v409.38h-45.47v-456.49z"/></g><g fill="none" stroke="#000" stroke-width="14"><path d="m441.75 107.51h45.47v52"/><path d="m119.08 516.89v-409.38h322.67"/><path d="m119.08 516.89h-45.47v-456.49h368.14v47.11"/><path d="m164.01 564h-44.93v-47.11"/><path d="m164.01 564v-404.49h323.21"/><path d="m487.22 159.51h44.93v456.49h-368.14v-52"/></g><g fill="#c8c8c8"><path d="m595.16 648.49c-3.447 3.745-9.6 3.684-13.741-.13-4.147-3.819-4.717-9.945-1.269-13.689 3.453-3.751 9.604-3.689 13.753.13 4.142 3.812 4.711 9.938 1.257 13.689"/><path d="m390.07 425.83l-51-60.61 8.242-8.839 64.958 46.08c-1.735 4.485-4.581 9.09-8.434 13.279-4.218 4.582-9.02 7.995-13.75 10.07l-.016.018"/></g><g fill="#0b00ea"><path d="m556.63 595.02l-.924-.851 1.131-1.228c7.548.362 17.05-4.116 24.652-12.369 7.792-8.463 11.466-18.599 10.205-26.15l1.262-1.37 1.302 1.198c0 0 22.655 20.858 47.37 43.618 24.721 22.76 93.29 93.98 106.43 106.07 7.651 7.04 6.393 14.12 3.997 18.802l.007.006c-1.705 3.345-3.991 5.467-3.991 5.467l-1.775 1.929-1.837 1.895-1.774 1.929c0 0-1.983 2.527-5.266 4.512-3.834 2.335-9.435 3.938-15.729-.036-1.048-.667-2.113-1.487-3.192-2.48-13.13-12.09-89.77-74.56-114.49-97.32-24.715-22.755-47.38-43.619-47.38-43.619"/><path d="m591.69 554.42c1.261 7.553-2.413 17.688-10.205 26.15-7.598 8.253-17.1 12.731-24.652 12.369l-1.131 1.228-85.59-78.81-70.62-78.32-9.427-11.2.017-.019c4.728-2.074 9.531-5.487 13.75-10.07 3.854-4.185 6.699-8.794 8.434-13.279l11.588 8.218 83.89 63.91 85.21 78.45-1.261 1.37"/><path d="m748.07 728.21c0 0 2.286-2.122 3.991-5.467.291.269 8.02 7.387 15.352 14.13 7.465 6.873.633 15.326.633 15.326s-7.762 7.323-15.227.45c-7.472-6.879-15.401-14.18-15.401-14.18 3.282-1.984 5.266-4.512 5.266-4.512l1.774-1.929 1.837-1.895 1.775-1.927"/></g><g fill="none" stroke="#000"><g stroke-width="16.799"><path d="m737.42 738.47c0 0 7.93 7.301 15.401 14.18 7.465 6.873 15.227-.45 15.227-.45s6.832-8.453-.633-15.326c-7.329-6.747-15.06-13.865-15.352-14.13"/><path d="m412.27 402.47l-64.958-46.08-8.242 8.839 51 60.61 9.427 11.2 70.62 78.33 85.59 78.8.924.851c0 0 22.662 20.864 47.37 43.617 24.721 22.76 101.36 85.23 114.49 97.32 1.079.993 2.145 1.813 3.192 2.48 6.295 3.975 11.896 2.371 15.729.036 3.282-1.984 5.266-4.512 5.266-4.512l1.774-1.929 1.837-1.895 1.775-1.929c0 0 2.286-2.122 3.991-5.467l-.007-.006c2.396-4.68 3.654-11.758-3.997-18.802-13.13-12.09-81.71-83.31-106.43-106.07-24.72-22.76-47.37-43.618-47.37-43.618l-1.302-1.198-85.21-78.45-83.89-63.91-11.588-8.215z"/><path d="m591.69 554.42c1.261 7.553-2.413 17.688-10.205 26.15-7.598 8.253-17.1 12.731-24.652 12.369"/></g><path d="m335.12 361.02l-5.896-5.429c-3.615-3.328-4.863-7.857-2.785-10.114 1.039-1.128 2.707-1.472 4.57-1.119 1.87.358 3.929 1.406 5.733 3.067l5.896 5.429" stroke-width="11.2"/><g stroke-width="16.799"><path d="m412.32 402.33c-.016.042-.038.091-.054.133-1.735 4.485-4.581 9.09-8.434 13.279-4.218 4.582-9.02 7.995-13.75 10.07"/><path d="m581.42 648.36c-4.147-3.819-4.717-9.945-1.269-13.689 3.453-3.751 9.604-3.689 13.753.13 4.142 3.813 4.711 9.938 1.257 13.689-3.447 3.745-9.599 3.684-13.741-.13z"/><path d="m721.72 738.4c0 0-.012.012-.034.037-.832.94-16.457 18.04-39.32 1.302-23.5-17.191-87.21-91.25-87.21-91.25"/></g></g></svg>