<svg xmlns="http://www.w3.org/2000/svg" width="850.39" height="850.39" viewBox="0 0 850.394 850.394" overflow="visible" enable-background="new 0 0 850.394 850.394"><path fill="#ffeec8" d="m785.16 684.35l9.5 50-21.3 1.91v.1l-565.85 51.8 577.15-106.31z"/><g fill="#be0000"><path d="m631.35 491.83l10.5 56.8-322.23 59.32-10.5-56.82z"/><path d="m532.43 164.5l48.11 261.33-260.02 47.91-48.11-261.43z"/></g><path d="m130.06 308.57l81.85 444.98-.74 1.84z"/><path d="m130.06 308.57l81.11 446.82-6.66 16.56-72.41-394.03-32.8-178.51 13.5 15.3z"/><path d="m132.1 377.92l72.41 394.03-7.41 18.51-3.19.6h-4.2l-8.6-44.91-9.71-50.9-9.8-51.61-9.89-51.9-10.01-52.1-9.7-51.3-9.8-50.91-10.6-55.81 14.1-2.5z"/><path fill="#ffeec8" d="m207.51 788.16l565.85-51.8.6 6.09 5.3 51.01-582.45-2.4.29-.6 7.41-18.51z"/><path d="m193.91 791.06l3.19-.6-.29.6z"/><path d="m196.81 791.06l-4.8 12.1-2.21-11.3 4.11-.8z"/><path d="m189.71 791.06h4.2l-4.11.8z"/><path d="m99.3 199.41l32.8 178.51-6.4 1.2-14.1 2.5-9.9-51.9-9.9-52.01-9.8-51.4-9.71-50.91 4.91-.89z"/><path d="m211.17 755.39l.74-1.84-81.85-444.98-17.26-93.86-13.5-15.3-5.1-27.6 583.24-107.31 113.42 616.25-6.2 1.1-577.15 106.31-3-16.21 6.66-16.56m430.68-206.76l-10.5-56.8-322.23 59.3 10.5 56.82 322.23-59.32m-61.31-122.8l-48.11-261.33-260.02 47.81 48.11 261.43 260.02-47.91" fill="#be0000"/><path d="m70.7 167.21l6.5 7.3-4.91.89z"/><g fill="none" stroke="#000"><path stroke-width="35.78" d="m99.3 199.41l-5.1-27.6 583.24-107.31 113.42 616.25-6.2 1.1-577.15 106.31-3-16.21"/><g stroke-width="26.835"><path d="m580.54 425.83l-260.02 47.91-48.11-261.43 260.02-47.81z"/><path d="m641.85 548.63l-322.23 59.32-10.5-56.82 322.23-59.3z"/><path d="m207.51 788.16l565.85-51.8v-.1l21.3-1.91-9.5-50"/><path d="m196.81 791.06l582.45 2.4-5.3-51.01"/><path d="m187.41 791.06h2.3"/></g><g stroke-linejoin="round" stroke-linecap="round"><g stroke-width="35.78"><path d="m72.29 175.4l-11.3 2.1"/><path d="m87.5 172.61l-10.3 1.9"/><path d="m82 226.31l-11.7 2.2"/><path d="m91.8 277.71l-12.1 2.21"/><path d="m101.7 329.72l-12.3 2.2"/><path d="m111.6 381.62l-12.5 2.3"/><path d="m122.2 437.43l-13.3 2.4"/><path d="m132 488.34l-13.8 2.5"/><path d="m141.7 539.64l-14.1 2.6"/><path d="m151.71 591.74l-14.41 2.6"/><path d="m161.6 643.64l-14.6 2.71"/><path d="m171.4 695.25l-15.4 2.8"/><path d="m181.11 746.15l-15.8 2.9"/><path d="m197.1 790.46l7.31-1.3"/><path d="m177.81 794.06l11.99-2.2"/></g><path stroke-width="8.945" d="m196.81 791.06l-4.8 12.1-2.21-11.3-.09-.8-8.6-44.91-9.71-50.9-9.8-51.61-9.89-51.9-10.01-52.1-9.7-51.3-9.8-50.91-10.6-55.81-9.9-51.9-9.9-52.01-9.8-51.4-9.71-50.91-1.59-8.19 6.5 7.3 22.1 24.9 13.5 15.3 17.26 93.86 81.85 444.98-.74 1.84-6.66 16.56-7.41 18.51z"/></g><path stroke-width="20" d="M106 176 130.06 308.57 211.17 755.39 216 782"/></g></svg>