<svg xmlns="http://www.w3.org/2000/svg" width="850.39" height="850.39" viewBox="0 0 850.394 850.394" overflow="visible" enable-background="new 0 0 850.394 850.394"><g fill="#33a02c"><path d="m592.34 612.35h11.4v21.48h-114.25v-21.48h11.46z"/><path d="m358.4 146.88c0 1.66 0 2.9 0 3.83 0 0-4.49 11.43-11.65 29.58-5.22 13.22-11.86 30-19.22 48.51-5.88 14.81-12.23 30.73-18.68 46.83-25.49 63.61-52.57 129.92-59.05 141.07-10.49 18-40.02 44.67-56.01 53.33-10.34 5.59-34.58 3.779-36.52 3.63 6.99-.38 12.36-1.46 14.59-3.68 8.66-8.681 2.34-18.33 13.33-21.33 10.99-3 41.6-25.13 63.95-79.25 20.04-48.54 62.23-153.76 83.22-213.54.55-1.54 1.08-3.06 1.59-4.54 3.71-10.73 8.17-16.43 9.79-16.43 5.41 0 9.79 1.3 12.31 4.39 1.51 1.85 2.35 4.35 2.35 7.6"/></g><path d="m157.24 473.66c-20.15 1.08-53.78-3.68-64.66-3.68-14.65 0-14.08-22.01-4-25.99 10.09-4 23.66-7.66 42.65-26.64 18.99-18.99 58.62-96.59 58.62-96.59 20.52-43.18 60.46-137.89 71.16-167.12.94-2.56 1.65-4.62 2.11-6.1 5.67-18.32 22.99-10.32 22.99-10.32l.34.34 13.32 13.31 28.32.41c1.02 1.44 2.09 2.85 3.22 4.21l1.05.37c-20.99 59.78-63.18 165-83.22 213.54-22.35 54.12-52.96 76.25-63.95 79.25-10.99 3-4.67 12.649-13.33 21.33-2.23 2.22-7.6 3.3-14.59 3.68-.001 0-.02 0-.03 0" fill="#c8c8c8"/><g fill="none" stroke="#231f20"><g stroke-width="14"><path d="m157.24 473.66c-20.15 1.08-53.78-3.68-64.66-3.68-14.65 0-14.08-22.01-4-25.99 10.09-4 23.66-7.66 42.65-26.64 18.99-18.99 58.62-96.59 58.62-96.59 20.52-43.18 60.46-137.89 71.16-167.12.94-2.56 1.65-4.62 2.11-6.1 5.67-18.32 22.99-10.32 22.99-10.32l.34.34 13.32 13.31 28.32.41 2.99.04"/><path d="m358.4 152.87c0 0 0 .39 0 0 0-.36 0-1.02 0-2.16 0-.93 0-2.17 0-3.83 0-3.25-.84-5.75-2.35-7.6-2.52-3.09-6.9-4.39-12.31-4.39-1.62 0-6.08 5.7-9.79 16.43-.51 1.48-1.04 3-1.59 4.54-20.99 59.78-63.18 165-83.22 213.54-22.35 54.12-52.96 76.25-63.95 79.25-10.99 3-4.67 12.649-13.33 21.33-2.23 2.22-7.6 3.3-14.59 3.68"/><path d="m358.4 150.71c0 0-4.49 11.43-11.65 29.58-5.22 13.22-11.86 30-19.22 48.51-5.88 14.81-12.23 30.73-18.68 46.83-25.49 63.61-52.57 129.92-59.05 141.07-10.49 18-40.02 44.67-56.01 53.33-10.34 5.59-34.58 3.779-36.52 3.63-.001 0-.02 0-.03 0-.06-.001-.09-.001-.09-.001"/><path d="m358.4 152.87l6.02 28.08 10.94 51.09 11.85 55.27 10.91 50.96 10.25 47.83 2.99 13.94"/><path d="m398.12 338.27l-84.14-5.12"/><path d="m405.97 386.61l-84.13-5.1"/><path d="m384 288l-74.52-5.3-2.57-.18"/><path d="m375.36 232.04l-47.82-3.24"/><path d="m362.48 181.36l-15.73-1.07"/><path d="m308.85 275.63l.63 7.07 4.5 50.45 4.35 48.67 1.09 12.22"/><path d="m356.78 139.13l-12.64-68.24c0 0-20.05 8.24-26.29 26.03-5.75 16.35-1.41 37.85 10.24 54.36 1.02 1.44 2.09 2.85 3.22 4.21"/><path d="m286.6 137.41l-12.65-68.25c0 0-20.05 8.24-26.3 26.03-6.24 17.75-.61 41.54 13.36 58.45.03.04.07.08.1.12"/></g><g stroke-width="21"><path d="m600.47 335.62c6.761 3.7 14.23 12.29 16.13 31.98l10.32 104.48 7.76 91.68 18.46 218.24"/><path d="m293.82 743.54l85.43-188.22 90.69-199.8c0 0 2.46-6.56 9.699-12.56 2.561-2.11 5.71-4.15 9.561-5.81 3.04-1.31 6.51-2.38 10.47-3.06l88.8-1.13c0 0 3.75-.52 8.53 1.13 1.11.38 2.27.88 3.46 1.53"/><path d="m600.44 335.62c0 0 .001 0 .02 0h.001c.811 0 17.221.55 32.24 38.06l72.32 186.61 8.989 23.2 54.3 150.44"/><path d="m634.67 563.76h.001l70.34-3.47"/><path d="m479.66 342.98l-8.54 212.72-6.51 162.21"/><path d="m489.21 337.18l11.74 275.17.24 5.65"/><path d="m597 334.09l-4.66 278.26-.08 4.73"/><path d="m380.08 555.7h91.04.09"/></g><path stroke-width="14" d="m592.34 612.35h11.4v21.48h-114.25v-21.48h11.46z"/></g></svg>