<?xml version="1.0" encoding="UTF-8" standalone="no"?>
<svg
   xmlns:dc="http://purl.org/dc/elements/1.1/"
   xmlns:cc="http://creativecommons.org/ns#"
   xmlns:rdf="http://www.w3.org/1999/02/22-rdf-syntax-ns#"
   xmlns:svg="http://www.w3.org/2000/svg"
   xmlns="http://www.w3.org/2000/svg"
   xmlns:sodipodi="http://sodipodi.sourceforge.net/DTD/sodipodi-0.dtd"
   xmlns:inkscape="http://www.inkscape.org/namespaces/inkscape"
   width="850.39"
   height="850.39"
   viewBox="0 0 850.394 850.394"
   overflow="visible"
   enable-background="new 0 0 850.394 850.394"
   id="svg2"
   version="1.1"
   inkscape:version="0.48.4 r9939"
   sodipodi:docname="set timer , to.svg">
  <metadata
     id="metadata72">
    <rdf:RDF>
      <cc:Work
         rdf:about="">
        <dc:format>image/svg+xml</dc:format>
        <dc:type
           rdf:resource="http://purl.org/dc/dcmitype/StillImage" />
        <dc:title></dc:title>
      </cc:Work>
    </rdf:RDF>
  </metadata>
  <defs
     id="defs70" />
  <sodipodi:namedview
     pagecolor="#ffffff"
     bordercolor="#666666"
     borderopacity="1"
     objecttolerance="10"
     gridtolerance="10"
     guidetolerance="10"
     inkscape:pageopacity="0"
     inkscape:pageshadow="2"
     inkscape:window-width="1920"
     inkscape:window-height="1003"
     id="namedview68"
     showgrid="false"
     inkscape:zoom="0.27751972"
     inkscape:cx="425.19501"
     inkscape:cy="425.19501"
     inkscape:window-x="-9"
     inkscape:window-y="-9"
     inkscape:window-maximized="1"
     inkscape:current-layer="svg2" />
  <path
     d="m269.55 147.85c69.08 0 125.08 51.98 125.08 116.11 0 64.14-56 116.14-125.08 116.14-69.06 0-125.06-52-125.06-116.14 0-64.13 56-116.11 125.06-116.11m15.58 102.51v-65.16c0-4.58-1.85-8.72-4.85-11.71-3-3-7.14-4.85-11.71-4.85-9.14 0-16.56 7.41-16.56 16.56v65.16c0 4.58 1.85 8.72 4.85 11.71 3 3 7.14 4.85 11.71 4.85 9.15 0 16.56-7.41 16.56-16.56"
     fill="#fff"
     id="path4" />
  <path
     d="m632.62 330.69c26.729 10.19 90.13 71.41 90.13 71.41 21.85 46.26 15.43 77.83 18.52 123.98 1.16 17.05 3.091 66.49 14.511 119.27l-182.62 110.39c-71.58-62.54-81.6-123.3-135.15-170.1-12.73-11.11-24.51-45.62-33-61.06-7.88-14.34-16.8-31.73-33.29-53.01-24.73-31.91-2.72-34.7 5.43-37.38 16.8-5.61 33.37 1.949 41.8 11.949 17.2 20.341 26.26 45.35 52.29 55.4 4.8 1.86 20.819 4.61 24.359 5.24 17.16 9.47 40.71-23.21 49.57-51.87 0 0 2.23-12.41-4.41-33.03-4.22-13.12-109.84-139.41-110.98-168.86-.45-11.48 14.01-32.11 34.569-11.27 10.92 11.07 51.87 58.53 87.85 100.6l5.29-2.55c6.1-7.12 17.14-12.47 27.22-6.97.92.5 2.06 1.25 3.4 2.21.05-10.02 22.03-17.6 36.92-9.45 1.819.99 4.43 2.77 7.58 5.1h.001z"
     fill="#ffeec8"
     id="path8" />
  <g
     fill="none"
     stroke="#231f20"
     stroke-width="19.23"
     id="g52">
    <path
       d="m611.31 497.5l.53-85.11c0 0-27.89-32.92-59.64-70.04-35.98-42.07-76.931-89.53-87.85-100.6-20.56-20.84-35.02-.21-34.569 11.27 1.14 29.45 106.76 155.74 110.98 168.86 6.641 20.62 4.41 33.03 4.41 33.03-8.86 28.66-32.41 61.34-49.57 51.87-3.54-.63-19.56-3.38-24.359-5.24-26.03-10.05-35.09-35.06-52.29-55.4-8.43-10-25-17.56-41.8-11.949-8.15 2.68-30.16 5.47-5.43 37.38 16.49 21.279 25.41 38.67 33.29 53.01 8.49 15.439 20.27 49.95 33 61.06 53.55 46.799 63.57 107.56 135.15 170.1"
       id="path56" />
    <path
       d="m665.54 469.08l-8.75-72.5c0 0-50.98-48.9-68.68-61.54-1.341-.96-2.48-1.71-3.4-2.21-10.08-5.5-21.12-.15-27.22 6.97"
       id="path58" />
    <path
       d="m632.61 330.69c-3.15-2.33-5.761-4.11-7.58-5.1-14.891-8.15-36.87-.57-36.92 9.45"
       id="path60" />
    <path
       d="m701.02 457.45l-8.409-76.69c0 0-40.4-35.61-59.99-50.07"
       id="path62" />
    <path
       d="m756.97 650.73c-.41-1.801-.81-3.591-1.189-5.381-11.42-52.779-13.351-102.22-14.511-119.27-3.09-46.15 3.33-77.72-18.52-123.98 0 0-63.4-61.22-90.13-71.41h-.001"
       id="path64" />
  </g>
  <g
     style="overflow:visible"
     id="g3059"
     transform="matrix(0.40891183,0,0,0.40891183,42.823218,31.118481)">
    <path
       id="path3051"
       d="M 122,133 H 726 V 737 H 122 z"
       inkscape:connector-curvature="0"
       style="fill:#efdcef;stroke:#50264c;stroke-width:30" />
  </g>
</svg>
