<svg xmlns="http://www.w3.org/2000/svg" width="850.39" height="850.39" viewBox="0 0 850.394 850.394" overflow="visible" enable-background="new 0 0 850.394 850.394"><path fill="#fff" d="m754.66 168.52v530.85h-84.66v-1.37-268h-162v264 5.37h-418.33v-530.85z"/><path d="m670 698v1.37h-162v-5.37-264h162v268m-36-158v-70l-94 2v68h94m-71.89 50c0-7.38-5.42-13.39-12.11-13.39s-12.11 6.01-12.11 13.39c0 7.39 5.42 13.39 12.11 13.39s12.11-6 12.11-13.39" fill="#33a02c"/><g fill="#231f20"><path d="m634 470v70h-94v-68z"/><path d="m550 576.61c6.69 0 12.11 6.01 12.11 13.39 0 7.39-5.42 13.39-12.11 13.39s-12.11-6-12.11-13.39c0-7.38 5.42-13.39 12.11-13.39"/></g><g fill="none" stroke="#231f20"><path stroke-width="21" d="m670 698v-268h-162v264"/><path stroke-width="28" d="m508 699.37h-418.33v-530.85h664.99v530.85h-84.66z"/></g></svg>