<svg xmlns="http://www.w3.org/2000/svg" width="850.39" height="850.39" viewBox="0 0 850.394 850.394" overflow="visible" enable-background="new 0 0 850.394 850.394"><g fill="#5668af"><circle cx="331.98" cy="348.77" r="13.175"/><circle cx="331.98" cy="377.33" r="13.175"/><circle cx="331.98" cy="405.89" r="13.175"/><circle cx="331.98" cy="434.45" r="13.175"/><circle cx="331.98" cy="463" r="13.175"/><circle cx="331.98" cy="491.56" r="13.175"/><circle cx="331.98" cy="520.12" r="13.175"/><circle cx="303.43" cy="548.68" r="13.175"/><circle cx="274.87" cy="548.68" r="13.175"/><circle cx="246.31" cy="548.68" r="13.175"/><circle cx="217.75" cy="548.68" r="13.175"/><circle cx="189.19" cy="548.68" r="13.175"/><circle cx="160.63" cy="548.68" r="13.175"/><circle cx="132.08" cy="548.68" r="13.175"/><circle cx="103.52" cy="520.12" r="13.175"/><circle cx="103.52" cy="491.56" r="13.175"/><circle cx="103.52" cy="463" r="13.175"/><circle cx="103.52" cy="434.45" r="13.175"/><circle cx="103.52" cy="405.89" r="13.175"/><circle cx="103.52" cy="377.33" r="13.175"/><circle cx="103.52" cy="348.77" r="13.175"/><circle cx="132.08" cy="320.22" r="13.175"/><circle cx="160.64" cy="320.22" r="13.175"/><circle cx="189.19" cy="320.22" r="13.175"/><circle cx="217.75" cy="320.22" r="13.175"/><circle cx="246.31" cy="320.22" r="13.175"/><circle cx="274.87" cy="320.22" r="13.175"/><circle cx="303.43" cy="320.22" r="13.175"/><circle cx="331.98" cy="548.68" r="13.175"/><circle cx="103.52" cy="548.68" r="13.175"/><circle cx="103.52" cy="320.22" r="13.175"/><circle cx="331.98" cy="320.22" r="13.175"/><circle cx="748.96" cy="348.77" r="13.175"/><circle cx="748.96" cy="377.33" r="13.175"/><circle cx="748.96" cy="405.89" r="13.175"/><circle cx="748.96" cy="434.45" r="13.175"/><circle cx="748.96" cy="463" r="13.175"/><circle cx="748.96" cy="491.56" r="13.175"/><circle cx="748.96" cy="520.12" r="13.175"/><circle cx="720.4" cy="548.68" r="13.175"/><circle cx="691.85" cy="548.68" r="13.175"/><circle cx="663.29" cy="548.68" r="13.175"/><circle cx="634.73" cy="548.68" r="13.175"/><circle cx="606.17" cy="548.68" r="13.175"/><circle cx="577.61" cy="548.68" r="13.175"/><circle cx="549.06" cy="548.68" r="13.175"/><circle cx="520.5" cy="520.12" r="13.175"/><circle cx="520.5" cy="491.56" r="13.175"/><circle cx="520.5" cy="463" r="13.175"/><circle cx="520.5" cy="434.45" r="13.175"/><circle cx="520.5" cy="405.89" r="13.175"/><circle cx="520.5" cy="377.33" r="13.175"/><circle cx="520.5" cy="348.77" r="13.175"/><circle cx="549.06" cy="320.22" r="13.175"/><circle cx="577.62" cy="320.22" r="13.175"/><circle cx="606.17" cy="320.22" r="13.175"/><circle cx="634.73" cy="320.22" r="13.175"/><circle cx="663.29" cy="320.22" r="13.175"/><circle cx="691.85" cy="320.22" r="13.175"/><circle cx="720.4" cy="320.22" r="13.175"/><circle cx="748.96" cy="548.68" r="13.175"/><circle cx="520.5" cy="548.68" r="13.175"/><circle cx="520.5" cy="320.22" r="13.175"/><circle cx="748.96" cy="320.22" r="13.175"/></g><g fill="#fff" stroke="#231f20" stroke-width="14"><path d="m379.47 429.43h91.83"/><path d="m379.41 455.76h91.83"/></g></svg>