<svg xmlns="http://www.w3.org/2000/svg" width="850.39" height="850.39" viewBox="0 0 850.394 850.394" overflow="visible" enable-background="new 0 0 850.394 850.394"><path d="m690.73 467.81c-3.097 8.854-8.222 17.414-15.172 25.6l-3.336-2.233c-213.12-186.86-544.13-42.712-567 7.119l-.952.925c-9.147-9.352-15.857-19.256-19.799-29.568-2.723-7.083-4.138-14.354-4.138-21.766 0-73.13 137.42-132.4 306.93-132.4 169.52 0 306.92 59.27 306.92 132.4 0 6.77-1.175 13.427-3.453 19.923" fill="#fff"/><path d="m387.68 743.87c-124.99-.543-250.94-19.479-303.21-274.23 3.942 10.313 10.651 20.22 19.799 29.568 46.48 47.624 155.68 81.06 282.99 81.06 132.44 0 245.27-36.18 288.3-86.87 6.95-8.186 12.08-16.746 15.172-25.6-53.26 277.27-191.79 276.34-303.05 276.1v-.025" fill="#a9d7f3"/><path d="m672.22 491.17l3.336 2.233c-43.02 50.694-155.85 86.87-288.3 86.87-127.32 0-236.52-33.44-282.99-81.06l.952-.925c22.868-49.831 353.88-193.98 567-7.119" fill="#f6cc4b"/><g fill="none" stroke="#010101"><g stroke-width="21"><path d="m84.47 469.65c-2.723-7.083-4.138-14.354-4.138-21.766 0-73.13 137.42-132.4 306.93-132.4 169.52 0 306.92 59.27 306.92 132.4 0 6.771-1.175 13.428-3.453 19.924-3.097 8.854-8.222 17.414-15.172 25.6-43.02 50.694-155.85 86.87-288.3 86.87-127.32 0-236.52-33.44-282.99-81.06-9.148-9.352-15.857-19.256-19.799-29.569z"/><path d="m81.16 452.7c1.068 5.757 2.163 11.407 3.311 16.942 52.27 254.75 178.22 273.69 303.21 274.23 2.029.009 4.049.009 6.078.009"/><path d="m692.21 459.88c-.489 2.66-.979 5.304-1.486 7.92-53.26 277.27-191.79 276.34-303.05 276.1-3.02-.009-6.03-.018-9.02-.018"/></g><g stroke-width="14"><path d="m105.22 498.29c22.869-49.831 353.89-193.98 567-7.119"/><path d="m281.14 156.59c-47.722 40.38 62.63 76.27 0 142.37"/><path d="m382.58 128.12c-46.27 39.15 64.07 74.75 0 142.37"/><path d="m487.58 156.59c-46.27 39.15 64.07 74.75 0 142.37"/></g></g><path d="m797.64 301.67c8.311 28.53 5.94 43.39-3.59 62.4-9.5 19.03-30.71 44.56-30.71 44.56-2.53 3.98-4.52 8.49-5.53 13.89-2.38 12.69 4.75 34.68 4.75 34.68l.601 285.13-34.99-.15.61-285.13c0 0 7.13-21.979 4.75-34.66-1.01-5.42-3-9.94-5.54-13.91 0 0-21.22-25.53-30.721-44.56-9.5-19.01-11.88-33.87-3.569-62.4 8.33-28.53 18.03-46.6 33.28-53.5 9.1-4.11 19.43-4.52 19.43-4.52 6.229.25 10.24 1.2 17.939 4.67 15.25 6.9 24.97 24.96 33.29 53.5" fill="#c8c8c8"/><path d="m746.41 243.5c6.229.25 10.24 1.2 17.939 4.67 15.25 6.9 24.971 24.96 33.29 53.5 8.311 28.53 5.94 43.39-3.59 62.4-9.5 19.03-30.71 44.56-30.71 44.56-2.53 3.98-4.52 8.49-5.53 13.89-2.38 12.69 4.75 34.68 4.75 34.68l.601 285.13-34.99-.15.61-285.13c0 0 7.13-21.979 4.75-34.66-1.01-5.42-3-9.94-5.54-13.91 0 0-21.22-25.53-30.721-44.56-9.5-19.01-11.88-33.87-3.569-62.4 8.33-28.53 18.03-46.6 33.28-53.5 9.1-4.11 19.43-4.52 19.43-4.52z" fill="none" stroke="#231f20" stroke-width="14"/></svg>