<svg xmlns="http://www.w3.org/2000/svg" width="850.39" height="850.39" viewBox="0 0 850.394 850.394" overflow="visible" enable-background="new 0 0 850.394 850.394"><path d="m425.58 252.32c95.63 0 173.14 77.51 173.14 173.13 0 95.63-77.51 173.14-173.14 173.14-95.62 0-173.13-77.51-173.13-173.14 0-95.62 77.51-173.13 173.13-173.13" fill="#fbed24"/><g fill="none" stroke="#231f20" stroke-width="28"><path d="m598.72 425.45c0 95.63-77.51 173.14-173.14 173.14-95.62 0-173.13-77.51-173.13-173.14 0-95.62 77.51-173.13 173.13-173.13 95.63 0 173.14 77.51 173.14 173.13z"/><path d="m424.23 220.8v-131.72"/><path d="m319.18 246.43l-72.76-109.79"/><path d="m243.75 327.37l-119.33-55.77"/><path d="m533.03 244.34l72.75-109.8"/><path d="m608.44 325.27l119.33-55.76"/><path d="m528.69 605.92l72.79 109.79"/><path d="m604.12 524.98l119.33 55.76"/><path d="m314.85 608.02l-72.76 109.78"/><path d="m239.43 527.09l-119.33 55.76"/><path d="m219.23 427.49h-131.71"/><path d="m761.61 427.49h-131.72"/><path d="m424.23 759.11v-131.72"/></g></svg>