<svg xmlns="http://www.w3.org/2000/svg" width="850.39" height="850.39" viewBox="0 0 850.394 850.394" overflow="visible" enable-background="new 0 0 850.394 850.394"><g fill="#ffffc2"><path d="m487.92 592.11c28.08 19.93 46.41 52.699 46.41 89.76 0 60.76-49.26 110.01-110.02 110.01-60.75 0-110.01-49.25-110.01-110.01 0-37.29 18.55-70.25 46.92-90.15l-1.22-1.72 1.15-473.45c4.89-50.53 37.79-61.84 61.78-63.21l3.65.08c23.99 1.38 56.9 12.68 61.79 63.21l-.37 475.37-.08.11m-20.1-27.88c0-6.37-1.101-10.931-3.28-13.681-1.83-2.319-4.38-3.49-7.63-3.49s-5.79 1.15-7.61 3.44c-2.2 2.78-3.3 7.34-3.3 13.66 0 6.45 1 10.93 3 13.45 2 2.51 4.64 3.77 7.91 3.77 3.25 0 5.79-1.149 7.609-3.439 2.201-2.78 3.301-7.35 3.301-13.71"/><path d="m460.47 556.11c.4 1.47.601 4.18.601 8.12 0 3.939-.23 6.739-.67 8.39-.33 1.28-.801 2.17-1.41 2.67-.61.5-1.3.74-2.08.74s-1.47-.24-2.07-.73c-.6-.49-1.1-1.47-1.49-2.939-.399-1.48-.6-4.19-.6-8.13 0-3.94.22-6.74.67-8.41.33-1.28.8-2.17 1.41-2.67.61-.49 1.3-.74 2.08-.74s1.46.25 2.07.74c.599.499 1.099 1.479 1.489 2.959"/></g><path d="m456.91 576.03c.78 0 1.47-.24 2.08-.74.609-.5 1.08-1.39 1.41-2.67.439-1.65.67-4.45.67-8.39 0-3.94-.2-6.65-.601-8.12-.39-1.48-.89-2.46-1.489-2.96-.61-.49-1.29-.74-2.07-.74s-1.47.25-2.08.74c-.61.5-1.08 1.39-1.41 2.67-.45 1.67-.67 4.47-.67 8.41 0 3.939.2 6.649.6 8.13.391 1.47.891 2.449 1.49 2.939.6.491 1.29.731 2.07.731m7.61 1.91c-1.819 2.29-4.359 3.439-7.609 3.439-3.271 0-5.91-1.26-7.91-3.77-2-2.521-3-7-3-13.45 0-6.32 1.1-10.88 3.3-13.66 1.82-2.29 4.36-3.44 7.61-3.44s5.8 1.171 7.63 3.49c2.18 2.75 3.28 7.311 3.28 13.681-.0001 6.36-1.101 10.93-3.301 13.71" fill="#231f20"/><g fill="none" stroke="#231f20"><g stroke-width="21"><path d="m483.09 588.86c1.641 1.04 3.25 2.12 4.83 3.25 28.08 19.93 46.41 52.699 46.41 89.76 0 60.76-49.26 110.01-110.02 110.01-60.75 0-110.01-49.25-110.01-110.01 0-37.29 18.55-70.25 46.92-90.15 1.9-1.33 3.84-2.6 5.82-3.81"/><path d="m360 590l1.15-473.45c4.89-50.53 37.79-61.84 61.78-63.21l3.65.08c23.99 1.38 56.9 12.68 61.79 63.21l-.37 475.37"/></g><g stroke-width="14"><path d="m381.77 323.95h54.77"/><path d="m399.05 293.97h37.16"/><path d="m399.05 261.69h37.16"/><path d="m399.38 234.96h37.16"/><path d="m381.12 205.95h54.76"/><path d="m398.4 175.96h37.16"/><path d="m398.4 143.69h37.16"/><path d="m398.72 116.96h37.16"/><path d="m381.78 442.61h54.76"/><path d="m399.06 412.62h37.16"/><path d="m399.06 380.35h37.16"/><path d="m399.38 353.62h37.16"/><path d="m381.12 561.26h54.77"/><path d="m398.4 531.28h37.16"/><path d="m398.4 499.01h37.16"/><path d="m398.73 472.27h37.16"/></g></g></svg>