<svg xmlns="http://www.w3.org/2000/svg" width="850.39" height="850.39" viewBox="0 0 850.394 850.394" overflow="visible" enable-background="new 0 0 850.394 850.394"><path d="m750.92 250.86c-12.68-1.7-25.18-7.36-35.45-16.98-10.08-9.45-16.5-21.29-19.11-33.59-3.88-18.22.58-37.47 13.76-51.54l90.65 84.93c-13.01 13.9-31.63 19.63-49.85 17.18"/><g fill="#787878"><path d="m750.92 250.86l-97.35 97.35v-50.95c0-10.97-8.9-19.86-19.87-19.86h-14.45l77.11-77.11c2.609 12.3 9.03 24.14 19.11 33.59 10.271 9.62 22.771 15.28 35.451 16.98"/><path d="m258.2 478.06h265.66v-170.07h-265.66v170.07m395.37-129.85v199.98c0 10.979-8.9 19.869-19.87 19.869h-425.96c-10.97 0-19.86-8.89-19.86-19.869v-70.45-101.25-79.23c0-10.97 8.89-19.86 19.86-19.86h411.51 14.45c10.97 0 19.87 8.89 19.87 19.86v50.95m-67.2.47v-40.78h-32.82v40.78h32.82m-1.6 74.47v-40.78h-32.82v40.78h32.82"/></g><path fill="#00e800" d="m553.55 307.9h32.82v40.78h-32.82z"/><path fill="#f73900" d="m551.95 382.37h32.819v40.78h-32.819z"/><path d="m523.86 307.99v170.07h-265.66v-170.07h265.66m-32.81 135.17v-101.96h-123.45l-54.7 48.62v53.34h178.15" fill="#c8c8c8"/><path fill="#a3d9ff" d="m491.05 341.2v101.96h-178.15v-53.34l54.7-48.62z"/><path fill="#c8c8c8" d="m187.88 376.49v101.25h-1.23-68.91-.58v-101.25h1.09 67.89z"/><path fill="#787878" d="m117.16 477.74v35.41h-59.58v-166.46h59.58v29.8z"/><g fill="none" stroke="#000" stroke-width="21.03"><path d="m653.57 348.21v199.98c0 10.979-8.9 19.869-19.87 19.869h-425.96c-10.97 0-19.86-8.89-19.86-19.869v-70.45-101.25-79.23c0-10.97 8.89-19.86 19.86-19.86h411.51 14.45c10.97 0 19.87 8.89 19.87 19.86v50.95z"/><path d="m258.2 307.99h265.66v170.07h-265.66z"/><path d="m652.78 509.36h-105.48l-46.87 44.68h-242.23v-75.98"/><path d="m553.55 307.9h32.82v40.78h-32.82z"/><path d="m551.95 382.37h32.819v40.78h-32.819z"/><path d="m312.9 389.82l54.7-48.62h123.45v101.96h-178.15z"/><path d="m186.14 376.49h-67.89"/><path d="m186.65 477.74h-68.91"/><path d="m619.25 277.4l77.11-77.11"/><path d="m653.57 348.21l97.35-97.35"/><path d="m117.16 477.74v35.41h-59.58v-166.46h59.58v29.8z"/><path d="m710.12 148.75c-13.18 14.07-17.64 33.32-13.76 51.54 2.609 12.3 9.03 24.14 19.11 33.59 10.271 9.62 22.771 15.28 35.45 16.98 18.22 2.45 36.84-3.28 49.85-17.18"/></g></svg>