<svg xmlns="http://www.w3.org/2000/svg" width="850.39" height="850.39" viewBox="0 0 850.394 850.394" overflow="visible" enable-background="new 0 0 850.394 850.394"><g fill="#ffeec8"><path d="m777.37 563.1l-326.42 22.82 300.51-55.3-67.39-366.23 32.25-5.11 75.38 402.82z"/><path d="m777.37 563.1l2.83 39.48-329.35-14.39.1-2.27z"/><path transform="matrix(-.181-.9835.9835-.181 301.25 1001.19)" d="m381.32 222.38h372.38v305.56h-372.38z"/><path d="m362.78 223.5l67.39 366.25-300.5 55.29-67.4-366.24z"/></g><g fill="none"><g stroke="#000" stroke-width="24.444"><path d="m430.17 589.75l-300.5 55.29-67.4-366.24 300.51-55.3z"/><path transform="matrix(-.181-.9835.9835-.181 301.25 1001.19)" d="m381.32 222.38h372.38v305.56h-372.38z"/></g><g stroke-dasharray="12.222" stroke="#fff" stroke-width="6.111"><path d="m438.71 586.94l.3 1.65"/><path d="m371.51 221.74l67.2 365.2"/></g><g stroke="#000"><g stroke-width="18.333"><path d="m450.95 585.92l326.42-22.82 14.33-1-75.38-402.82-32.25 5.11"/><path d="m438.95 587.67l11.9.52 329.35 14.39-2.83-39.48-.001-.13"/></g><g stroke-width="12.222"><path d="M 423.33,256.89 664.71,208"/><path d="m428.75 284.29l241.38-48.89"/><path d="m432.85 308.91l241.38-48.89"/><path d="m438.18 335.27l241.39-48.89"/><path d="m444.94 360.75l241.39-48.89"/><path d="m450.36 388.15l241.39-48.89"/><path d="m454.46 412.77l241.39-48.89"/><path d="m459.8 439.13l241.38-48.89"/></g></g></g></svg>